<?xml version="1.0" encoding="UTF-8"?>
<svg version="1.1" xmlns="http://www.w3.org/2000/svg" width="512" height="512">
<path d="M0 0 C0.68718821 -0.00290688 1.37437642 -0.00581376 2.08238852 -0.00880873 C4.40808568 -0.01616553 6.73352368 -0.00913921 9.05921936 -0.002285 C10.73419042 -0.0045872 12.40916046 -0.00776209 14.08412838 -0.01173949 C18.70481463 -0.02012933 23.32541884 -0.01594333 27.94610548 -0.00976706 C32.92230265 -0.0052606 37.89848525 -0.0122173 42.87467957 -0.0177269 C52.63014893 -0.02664195 62.38558761 -0.02468952 72.14105821 -0.01890162 C80.06624495 -0.01439341 87.99142306 -0.01376857 95.91661072 -0.01594925 C97.04255896 -0.01625572 98.16850719 -0.01656218 99.32857507 -0.01687793 C101.61558255 -0.01751735 103.90259002 -0.01816578 106.18959749 -0.01882312 C127.6584428 -0.0245326 149.12727105 -0.01795885 170.59611356 -0.00722238 C189.03605386 0.00171368 207.47596897 0.00016182 225.91590881 -0.00905991 C247.30548422 -0.01975165 268.69504467 -0.02398322 290.08462238 -0.01783538 C292.36343701 -0.01719825 294.64225165 -0.01656951 296.92106628 -0.01594925 C298.04242365 -0.0156407 299.16378102 -0.01533215 300.31911892 -0.01501425 C308.23907099 -0.01328401 316.15901362 -0.01620946 324.07896423 -0.02090836 C333.72458739 -0.02650503 343.37017798 -0.0250264 353.01579738 -0.01434687 C357.94152543 -0.00907374 362.86719908 -0.00706116 367.79292679 -0.01364517 C372.29568562 -0.019573 376.79833926 -0.01638236 381.30108845 -0.00569007 C382.93631483 -0.0034425 384.57154996 -0.00462238 386.20677078 -0.00944164 C388.417202 -0.01546007 390.62726551 -0.00935028 392.837677 0 C394.06916505 0.0003247 395.3006531 0.00064941 396.56945896 0.00098395 C399.4188385 0.25168228 399.4188385 0.25168228 401.4188385 2.25168228 C401.67953491 4.18037796 401.67953491 4.18037796 401.6934967 6.56198502 C401.70302872 7.45308472 401.71256073 8.34418442 401.72238159 9.26228714 C401.72101448 10.70916664 401.72101448 10.70916664 401.71961975 12.18527603 C401.72390488 13.17415314 401.72819 14.16303024 401.73260498 15.18187332 C401.73835487 17.27585458 401.73884372 19.36985581 401.73451233 21.46384048 C401.73135466 24.67276388 401.75479568 27.88076375 401.78016663 31.08957291 C401.78243972 33.12147278 401.78314307 35.15337514 401.78211975 37.18527603 C401.7913295 38.14783813 401.80053925 39.11040024 401.81002808 40.10213089 C401.80068489 41.44350868 401.80068489 41.44350868 401.79115295 42.81198502 C401.79178238 43.59871094 401.7924118 44.38543686 401.7930603 45.19600296 C401.4188385 47.25168228 401.4188385 47.25168228 398.4188385 50.25168228 C393.7988385 50.25168228 389.1788385 50.25168228 384.4188385 50.25168228 C384.4188385 69.06168228 384.4188385 87.87168228 384.4188385 107.25168228 C389.3688385 107.25168228 394.3188385 107.25168228 399.4188385 107.25168228 C401.85754846 109.69039225 401.67439684 110.32544302 401.6934967 113.66965103 C401.70302872 114.58399918 401.71256073 115.49834732 401.72238159 116.44040298 C401.72101448 117.92479874 401.72101448 117.92479874 401.71961975 119.43918228 C401.72390488 120.45262711 401.72819 121.46607193 401.73260498 122.5102272 C401.73835459 124.65548326 401.73884392 126.80075883 401.73451233 128.94601822 C401.7313513 132.23834651 401.75480779 135.52977763 401.78016663 138.82199478 C401.78243934 140.90272281 401.78314324 142.98345326 401.78211975 145.06418228 C401.7913295 146.05377945 401.80053925 147.04337662 401.81002808 148.06296158 C401.80068489 149.4344838 401.80068489 149.4344838 401.79115295 150.83371353 C401.79178238 151.64042496 401.7924118 152.44713638 401.7930603 153.27829361 C401.66956711 153.92951187 401.54607391 154.58073013 401.4188385 155.25168228 C397.68205421 157.74287181 395.67432031 157.45820488 391.2313385 157.37668228 C389.95903381 157.35863541 388.68672913 157.34058853 387.37586975 157.32199478 C386.40004944 157.29879166 385.42422913 157.27558853 384.4188385 157.25168228 C384.42160388 159.18018383 384.42160388 159.18018383 384.42442513 161.147645 C384.46771304 191.64644293 384.5007056 222.1452326 384.52096916 252.64405387 C384.52347066 256.39550623 384.5260593 260.14695853 384.52870178 263.8984108 C384.52948871 265.01871094 384.52948871 265.01871094 384.53029154 266.16164341 C384.5390012 278.2649643 384.55477425 290.36826625 384.57314409 302.47157589 C384.59182756 314.88477542 384.60295193 327.297965 384.60701549 339.711178 C384.60976378 347.3747397 384.61845327 355.03824787 384.63467143 362.7017931 C384.64646355 368.57186668 384.64775378 374.44191257 384.64505386 380.31199837 C384.64560611 382.72473989 384.64961107 385.13748336 384.65724945 387.55021286 C384.66713804 390.83353516 384.66482968 394.11662473 384.65934753 397.39995193 C384.66808606 398.84594976 384.66808606 398.84594976 384.67700112 400.32115966 C384.67301902 401.1979817 384.66903692 402.07480374 384.66493416 402.97819614 C384.6656936 403.73649764 384.66645304 404.49479914 384.66723549 405.27607948 C384.4188385 407.25168228 384.4188385 407.25168228 382.4188385 410.25168228 C379.80144268 410.62772977 379.80144268 410.62772977 376.40269566 410.6292057 C375.11170729 410.63702895 373.82071893 410.64485219 372.49060971 410.6529125 C371.04436722 410.64642528 369.59812598 410.63965527 368.15188599 410.63263321 C366.6261184 410.63608668 365.10035331 410.64084915 363.57459348 410.64681494 C359.36625446 410.6593975 355.15811818 410.65312181 350.9497782 410.64385629 C346.4173203 410.6370956 341.88489837 410.64753219 337.35244751 410.65579605 C328.46692355 410.66916789 319.58147542 410.66624024 310.69594843 410.65755813 C303.47681162 410.6507951 296.25769612 410.64985887 289.03855705 410.65312958 C288.01281054 410.65358928 286.98706403 410.65404898 285.93023429 410.65452261 C283.84672455 410.65548174 281.76321481 410.65645438 279.67970508 410.65744038 C260.12125312 410.66600449 240.56284327 410.65614437 221.00439822 410.64003928 C204.20836046 410.62663718 187.4123849 410.62896133 170.61634827 410.64279556 C151.13154066 410.65883681 131.64677002 410.66517831 112.16195673 410.65595877 C110.0856164 410.65500308 108.00927606 410.65405997 105.93293571 410.65312958 C104.91122703 410.65266675 103.88951834 410.65220392 102.83684878 410.65172707 C95.62368673 410.64913266 88.41054804 410.65351791 81.1973896 410.66056824 C72.41072767 410.66896739 63.62414616 410.66673667 54.83749349 410.65072601 C50.35109755 410.64282155 45.86483591 410.63978848 41.37844086 410.64967346 C37.27588172 410.65857624 33.17358205 410.65376103 29.07104664 410.63774081 C27.58250562 410.63437413 26.09394293 410.63612907 24.60541571 410.64336817 C22.5905661 410.65241945 20.57565558 410.64139075 18.56082249 410.6292057 C17.43907362 410.62871865 16.31732474 410.62823159 15.16158348 410.62772977 C12.4188385 410.25168228 12.4188385 410.25168228 10.55803597 408.99517995 C9.14003876 406.82499007 9.04581217 405.56287506 9.04969501 402.97819614 C9.04372187 402.1013741 9.03774872 401.22455207 9.03159457 400.32115966 C9.0403331 399.35716111 9.04907162 398.39316256 9.05807495 397.39995193 C9.05551168 396.37650057 9.0529484 395.35304921 9.05030745 394.29858416 C9.04534734 390.85286069 9.06189946 387.40757079 9.07826233 383.96188736 C9.07910812 381.49842209 9.0786344 379.03495607 9.07693481 376.57149124 C9.07625061 371.25944074 9.0847858 365.94752643 9.10164833 360.6355114 C9.12601289 352.95522059 9.13384098 345.27498325 9.13761231 337.59465798 C9.14418079 325.1343552 9.16415271 312.67411129 9.19252014 300.21384048 C9.22005044 288.10870026 9.24128905 276.00357601 9.25404358 263.8984108 C9.25483175 263.15245007 9.25561992 262.40648935 9.25643197 261.63792375 C9.26034704 257.89571795 9.26413818 254.15351202 9.26786768 250.41130602 C9.29897596 219.3580553 9.35204531 188.30487772 9.4188385 157.25168228 C8.37083069 157.27488541 7.32282288 157.29808853 6.24305725 157.32199478 C4.86415813 157.34075531 3.4852513 157.35895521 2.1063385 157.37668228 C1.41604553 157.39344009 0.72575256 157.41019791 0.01454163 157.42746353 C-3.75251546 157.46386022 -5.36547854 157.39547092 -8.5811615 155.25168228 C-8.9553833 153.27829361 -8.9553833 153.27829361 -8.95347595 150.83371353 C-8.95970474 149.91936539 -8.96593353 149.00501724 -8.97235107 148.06296158 C-8.96314133 147.07336441 -8.95393158 146.08376724 -8.94444275 145.06418228 C-8.94494125 144.05073746 -8.94543976 143.03729263 -8.94595337 141.99313736 C-8.94361014 139.84785377 -8.93386705 137.70256758 -8.91734314 135.55734634 C-8.89375766 132.26510528 -8.89677949 128.97367378 -8.90342712 125.68136978 C-8.89785044 123.60063576 -8.89074062 121.51990517 -8.88194275 119.43918228 C-8.88285416 118.44958511 -8.88376556 117.45998795 -8.88470459 116.44040298 C-8.87517258 115.52605484 -8.86564056 114.6117067 -8.8558197 113.66965103 C-8.85121231 112.86293961 -8.84660492 112.05622818 -8.84185791 111.22507095 C-8.5811615 109.25168228 -8.5811615 109.25168228 -6.5811615 107.25168228 C-1.3011615 107.25168228 3.9788385 107.25168228 9.4188385 107.25168228 C9.4188385 88.44168228 9.4188385 69.63168228 9.4188385 50.25168228 C4.4688385 50.25168228 -0.4811615 50.25168228 -5.5811615 50.25168228 C-6.5711615 49.59168228 -7.5611615 48.93168228 -8.5811615 48.25168228 C-8.9553833 46.27829361 -8.9553833 46.27829361 -8.95347595 43.83371353 C-8.95970474 42.91936539 -8.96593353 42.00501724 -8.97235107 41.06296158 C-8.96314133 40.07336441 -8.95393158 39.08376724 -8.94444275 38.06418228 C-8.94494125 37.05073746 -8.94543976 36.03729263 -8.94595337 34.99313736 C-8.94361014 32.84785377 -8.93386705 30.70256758 -8.91734314 28.55734634 C-8.89375766 25.26510528 -8.89677949 21.97367378 -8.90342712 18.68136978 C-8.89785044 16.60063576 -8.89074062 14.51990517 -8.88194275 12.43918228 C-8.88285416 11.44958511 -8.88376556 10.45998795 -8.88470459 9.44040298 C-8.87517258 8.52605484 -8.86564056 7.6117067 -8.8558197 6.66965103 C-8.85121231 5.86293961 -8.84660492 5.05622818 -8.84185791 4.22507095 C-8.17382765 -0.831705 -4.11083347 0.0010839 0 0 Z M2.4188385 11.25168228 C2.4188385 20.49168228 2.4188385 29.73168228 2.4188385 39.25168228 C130.4588385 39.25168228 258.4988385 39.25168228 390.4188385 39.25168228 C390.4188385 30.01168228 390.4188385 20.77168228 390.4188385 11.25168228 C262.3788385 11.25168228 134.3388385 11.25168228 2.4188385 11.25168228 Z M20.4188385 50.25168228 C20.4188385 69.06168228 20.4188385 87.87168228 20.4188385 107.25168228 C136.9088385 107.25168228 253.3988385 107.25168228 373.4188385 107.25168228 C373.4188385 88.44168228 373.4188385 69.63168228 373.4188385 50.25168228 C256.9288385 50.25168228 140.4388385 50.25168228 20.4188385 50.25168228 Z M2.4188385 118.25168228 C2.4188385 127.49168228 2.4188385 136.73168228 2.4188385 146.25168228 C130.4588385 146.25168228 258.4988385 146.25168228 390.4188385 146.25168228 C390.4188385 137.01168228 390.4188385 127.77168228 390.4188385 118.25168228 C262.3788385 118.25168228 134.3388385 118.25168228 2.4188385 118.25168228 Z M20.4188385 157.25168228 C20.4188385 225.23168228 20.4188385 293.21168228 20.4188385 363.25168228 C59.0288385 363.25168228 97.6388385 363.25168228 137.4188385 363.25168228 C137.4188385 295.27168228 137.4188385 227.29168228 137.4188385 157.25168228 C98.8088385 157.25168228 60.1988385 157.25168228 20.4188385 157.25168228 Z M148.4188385 157.25168228 C148.4188385 203.78168228 148.4188385 250.31168228 148.4188385 298.25168228 C222.6688385 298.25168228 296.9188385 298.25168228 373.4188385 298.25168228 C373.4188385 251.72168228 373.4188385 205.19168228 373.4188385 157.25168228 C299.1688385 157.25168228 224.9188385 157.25168228 148.4188385 157.25168228 Z M148.4188385 309.25168228 C148.4188385 338.95168228 148.4188385 368.65168228 148.4188385 399.25168228 C222.6688385 399.25168228 296.9188385 399.25168228 373.4188385 399.25168228 C373.4188385 369.55168228 373.4188385 339.85168228 373.4188385 309.25168228 C299.1688385 309.25168228 224.9188385 309.25168228 148.4188385 309.25168228 Z M20.4188385 374.25168228 C20.4188385 382.50168228 20.4188385 390.75168228 20.4188385 399.25168228 C59.0288385 399.25168228 97.6388385 399.25168228 137.4188385 399.25168228 C137.4188385 391.00168228 137.4188385 382.75168228 137.4188385 374.25168228 C98.8088385 374.25168228 60.1988385 374.25168228 20.4188385 374.25168228 Z " fill="#000000" transform="translate(59.58116149902344,50.74831771850586)"/>
<path d="M0 0 C7.32774803 4.32118032 10.09848376 9.14646211 13.4375 16.9375 C38.1875 17.4325 38.1875 17.4325 63.4375 17.9375 C63.7675 16.2875 64.0975 14.6375 64.4375 12.9375 C67.35305494 6.18226332 72.06658753 2.38542828 78.4375 -1.0625 C85.62625764 -3.45875255 95.0079892 -3.23206879 101.9375 -0.125 C107.97857907 3.41909972 111.78254558 8.62759117 114.875 14.8125 C116.32363647 22.86048037 115.82669026 29.50735213 112.4375 36.9375 C111.963125 37.618125 111.48875 38.29875 111 39 C110.09972039 41.26977369 110.09972039 41.26977369 112.25 44.4375 C112.62769531 45.0046875 113.00539063 45.571875 113.39453125 46.15625 C116.33280061 51.1744179 115.98539175 57.32160961 115.4375 62.9375 C113.26752461 70.50882718 109.02299192 76.55145692 102.3125 80.75 C95.50817412 84.23679386 88.62965831 84.76518856 81.25 82.875 C73.10793359 79.99296697 68.24502011 75.59721758 64.25 67.98828125 C63.4375 65.9375 63.4375 65.9375 63.4375 62.9375 C46.9375 63.2675 30.4375 63.5975 13.4375 63.9375 C11.7875 67.2375 10.1375 70.5375 8.4375 73.9375 C3.08777489 79.64991833 -1.742526 82.84016244 -9.5625 83.9375 C-16.49894875 84.16000812 -22.92096604 83.15428811 -28.5625 78.9375 C-35.0538156 72.7690207 -38.69604233 67.31441996 -39.53125 58.3359375 C-39.60233692 52.88001654 -38.24915969 48.21926476 -35.6875 43.4375 C-34.22145967 38.87648563 -35.39771036 37.29323002 -37.4921875 33.1875 C-40.58304446 26.68993209 -39.88408669 19.60543619 -37.5625 12.9375 C-29.83908779 -0.76378543 -14.77105328 -6.82431641 0 0 Z M-25.9375 15.625 C-28.04359758 19.91819891 -28.38455831 23.24118671 -27.5625 27.9375 C-26.50768437 30.70060241 -25.33810167 32.50238913 -23.5625 34.9375 C-22.5725 35.2675 -21.5825 35.5975 -20.5625 35.9375 C-20.14370011 39.3576991 -19.87192182 41.9192601 -21.86328125 44.85546875 C-22.93053863 46.05008381 -24.0262909 47.22001183 -25.15234375 48.359375 C-28.07168586 51.62645038 -27.90052125 55.50321212 -27.83984375 59.65625 C-27.25032613 64.50524003 -24.4173648 67.16405089 -20.9375 70.3125 C-16.34715518 72.52266602 -12.56782944 72.84827988 -7.5625 71.9375 C-3.49924332 70.15603485 -1.13879766 67.83175499 1.25 64.125 C2.60369653 60.49139353 3.49704985 56.6993006 4.4375 52.9375 C26.5475 52.9375 48.6575 52.9375 71.4375 52.9375 C72.4275 55.9075 73.4175 58.8775 74.4375 61.9375 C77.02906783 66.67381362 79.55720234 69.54339172 84.4375 71.9375 C89.72429501 72.88294874 94.41474474 72.32106118 98.92578125 69.32421875 C102.41653504 66.1221061 104.1429604 62.41690797 104.69921875 57.734375 C104.53257317 52.71746598 102.97717777 50.05118172 99.75 46.25 C96.40917569 42.29863491 96.40917569 42.29863491 96.6875 38.75 C98.4375 35.9375 98.4375 35.9375 101 33.125 C104.21991721 29.48467817 104.72042643 25.70438172 104.4375 20.9375 C102.70972852 15.65255194 99.76603311 13.16087572 95.4375 9.9375 C91.96113841 8.1993192 88.238459 8.48241047 84.4375 8.9375 C79.55720234 11.33160828 77.02906783 14.20118638 74.4375 18.9375 C73.4475 21.9075 72.4575 24.8775 71.4375 27.9375 C49.3275 27.9375 27.2175 27.9375 4.4375 27.9375 C2.9525 22.9875 2.9525 22.9875 1.4375 17.9375 C-1.12362853 13.08018727 -3.32554714 10.71608776 -8.5625 8.9375 C-16.29185701 7.81348219 -20.70936439 9.70895181 -25.9375 15.625 Z " fill="#000000" transform="translate(283.5625,238.0625)"/>
<path d="M0 0 C7.35886345 5.91682355 12.00661749 14.56371159 13.04045105 23.94935608 C13.15981566 26.83204749 13.19211394 29.70079341 13.18359375 32.5859375 C13.1888356 33.63149811 13.19407745 34.67705872 13.19947815 35.75430298 C13.20586385 37.94768387 13.20460648 40.14109917 13.19604492 42.33447266 C13.18747107 45.6988517 13.21644766 49.06156678 13.24804688 52.42578125 C13.24965746 54.56249949 13.24908409 56.69922074 13.24609375 58.8359375 C13.25732773 59.84216156 13.26856171 60.84838562 13.28013611 61.88510132 C13.26606468 63.28268173 13.26606468 63.28268173 13.25170898 64.70849609 C13.25154282 65.52740326 13.25137665 66.34631042 13.25120544 67.19003296 C12.75 69.3125 12.75 69.3125 11.09402466 71.07698059 C8.13407478 72.63714998 6.08634347 72.68678852 2.74389648 72.68481445 C1.53261581 72.69104324 0.32133514 72.69727203 -0.926651 72.70368958 C-2.88301735 72.68987495 -2.88301735 72.68987495 -4.87890625 72.67578125 C-6.23363749 72.67526238 -7.58836948 72.67578111 -8.94309998 72.67729187 C-11.77850626 72.67720227 -14.61362748 72.66679737 -17.44897461 72.64868164 C-21.0829769 72.62597295 -24.71656366 72.62545551 -28.35061741 72.63219929 C-31.14645582 72.63554052 -33.9421995 72.62890668 -36.73801994 72.61907005 C-38.72943718 72.61335152 -40.72087057 72.61465364 -42.71229553 72.61604309 C-43.92042404 72.60651108 -45.12855255 72.59697906 -46.37329102 72.5871582 C-47.43822281 72.58255081 -48.5031546 72.57794342 -49.60035706 72.57319641 C-52.25 72.3125 -52.25 72.3125 -55.25 70.3125 C-55.63768005 68.203125 -55.63768005 68.203125 -55.65405273 65.5625 C-55.66673691 64.57386963 -55.67942108 63.58523926 -55.69248962 62.56665039 C-55.68955399 61.49278076 -55.68661835 60.41891113 -55.68359375 59.3125 C-55.69145653 57.65432251 -55.69145653 57.65432251 -55.69947815 55.96264648 C-55.70591447 53.61556844 -55.70454067 51.26845821 -55.69604492 48.92138672 C-55.68759955 45.35454427 -55.71617062 41.78933763 -55.74804688 38.22265625 C-55.74966072 35.94010464 -55.74907787 33.65755023 -55.74609375 31.375 C-55.75732773 30.31732422 -55.76856171 29.25964844 -55.78013611 28.16992188 C-55.67869221 17.20635759 -52.29846832 9.43855512 -44.76171875 1.515625 C-31.77744367 -9.87338145 -13.88755953 -9.40685636 0 0 Z M-40.25 13.3125 C-43.86433033 19.34588248 -44.8188801 24.78860308 -44.640625 31.72265625 C-44.63659668 32.48026245 -44.63256836 33.23786865 -44.62841797 34.01843262 C-44.60774846 36.80420729 -44.55190626 39.58963226 -44.5 42.375 C-44.4175 48.624375 -44.335 54.87375 -44.25 61.3125 C-29.07 61.3125 -13.89 61.3125 1.75 61.3125 C1.811875 55.3725 1.87375 49.4325 1.9375 43.3125 C1.96481201 41.45367187 1.99212402 39.59484375 2.02026367 37.6796875 C2.02903744 36.18229824 2.03667926 34.68490175 2.04296875 33.1875 C2.05831665 32.42953125 2.07366455 31.6715625 2.08947754 30.890625 C2.09348408 22.59975175 -0.54137238 16.16246385 -6.23046875 10.078125 C-10.58247109 6.27327963 -15.52376454 4.15876154 -21.3125 3.875 C-29.08708028 4.73884225 -35.00855355 7.40064614 -40.25 13.3125 Z " fill="#000000" transform="translate(160.25,235.6875)"/>
<path d="M0 0 C0.8677002 -0.01268417 1.73540039 -0.02536835 2.62939453 -0.03843689 C3.55864746 -0.03550125 4.48790039 -0.03256561 5.4453125 -0.02954102 C6.88753174 -0.03740379 6.88753174 -0.03740379 8.35888672 -0.04542542 C10.38963862 -0.05184259 12.42042771 -0.05051257 14.45117188 -0.04199219 C17.55926586 -0.03347753 20.66552485 -0.06225564 23.7734375 -0.09399414 C25.74739528 -0.09560613 27.72135632 -0.09502866 29.6953125 -0.09204102 C30.62456543 -0.10327499 31.55381836 -0.11450897 32.51123047 -0.12608337 C36.21368365 -0.08605511 38.84316598 0.02543364 42.15429688 1.74951172 C44.48171813 6.11262402 44.13950026 10.50638839 44.1015625 15.37280273 C44.1053894 16.44526245 44.10921631 17.51772217 44.11315918 18.62268066 C44.11587966 20.88884419 44.10850903 23.15503904 44.09179688 25.42114258 C44.07039044 28.89141801 44.09159525 32.359623 44.1171875 35.82983398 C44.11454425 38.03166147 44.10941933 40.23348768 44.1015625 42.43530273 C44.10965942 43.47392456 44.11775635 44.51254639 44.12609863 45.5826416 C44.03556345 52.53186763 44.03556345 52.53186763 42.15429688 56.05859375 C38.08872027 58.17550538 34.21304942 57.95476257 29.6953125 57.90014648 C28.73383301 57.90160172 27.77235352 57.90305695 26.78173828 57.90455627 C24.75094571 57.90289787 22.72014049 57.89134317 20.68945312 57.87060547 C17.58148802 57.84165683 14.47522936 57.84999672 11.3671875 57.86303711 C9.39322088 57.85679938 7.41925964 57.84840817 5.4453125 57.83764648 C4.05143311 57.84204994 4.05143311 57.84204994 2.62939453 57.84654236 C1.76169434 57.83385818 0.89399414 57.82117401 0 57.80810547 C-0.76070801 57.80270248 -1.52141602 57.7972995 -2.30517578 57.79173279 C-5.09958215 57.28181063 -6.44033025 56.42759536 -8.4296875 54.40405273 C-8.93762207 52.12731934 -8.93762207 52.12731934 -8.94726562 49.42944336 C-8.96617859 47.91272034 -8.96617859 47.91272034 -8.98547363 46.36535645 C-8.97737671 45.27468872 -8.96927979 44.184021 -8.9609375 43.06030273 C-8.9647644 41.93966431 -8.96859131 40.81902588 -8.97253418 39.66442871 C-8.97525746 37.29393618 -8.96786734 34.92341382 -8.95117188 32.55297852 C-8.92976975 28.91802169 -8.95096118 25.2850416 -8.9765625 21.65014648 C-8.9739193 19.34936086 -8.96879449 17.04857646 -8.9609375 14.74780273 C-8.96903442 13.65713501 -8.97713135 12.56646729 -8.98547363 11.44274902 C-8.97286499 10.43160034 -8.96025635 9.42045166 -8.94726562 8.37866211 C-8.94408325 7.48836304 -8.94090088 6.59806396 -8.93762207 5.68078613 C-8.4296875 3.40405273 -8.4296875 3.40405273 -6.67419434 1.61839294 C-4.20923754 0.28478322 -2.78192093 0.0197588 0 0 Z M2.5703125 11.40405273 C2.5703125 22.95405273 2.5703125 34.50405273 2.5703125 46.40405273 C12.1403125 46.40405273 21.7103125 46.40405273 31.5703125 46.40405273 C31.5703125 34.85405273 31.5703125 23.30405273 31.5703125 11.40405273 C22.0003125 11.40405273 12.4303125 11.40405273 2.5703125 11.40405273 Z " fill="#000000" transform="translate(235.4296875,377.595947265625)"/>
<path d="M0 0 C1.30639183 -0.00934319 1.30639183 -0.00934319 2.63917542 -0.01887512 C3.5715654 -0.00966537 4.50395538 -0.00045563 5.46459961 0.0090332 C6.42845078 0.0085347 7.39230194 0.00803619 8.38536072 0.00752258 C10.42033961 0.00986061 12.45532152 0.01957312 14.49023438 0.03613281 C17.60890476 0.05975357 20.72672171 0.0566881 23.84545898 0.05004883 C25.82267763 0.05562477 27.79989268 0.06273413 29.77709961 0.0715332 C30.71151382 0.0706218 31.64592804 0.06971039 32.60865784 0.06877136 C33.91032143 0.08306938 33.91032143 0.08306938 35.23828125 0.09765625 C36.00120987 0.10226364 36.76413849 0.10687103 37.55018616 0.11161804 C39.55444336 0.37231445 39.55444336 0.37231445 42.55444336 2.37231445 C43.50396363 5.22087526 43.68590661 7.00877274 43.69970703 9.96386719 C43.70608688 10.89170517 43.71246674 11.81954315 43.71903992 12.77549744 C43.72015274 13.77553299 43.72126556 14.77556854 43.72241211 15.8059082 C43.72740471 17.35013206 43.72740471 17.35013206 43.73249817 18.92555237 C43.73756233 21.10352125 43.73990665 23.28149789 43.73974609 25.45947266 C43.74193245 28.79317997 43.76009336 32.12655634 43.77905273 35.46020508 C43.78198676 37.57543832 43.78397149 39.69067314 43.78491211 41.8059082 C43.79209763 42.80391953 43.79928314 43.80193085 43.8066864 44.83018494 C43.80360977 45.76117508 43.80053314 46.69216522 43.79736328 47.65136719 C43.7987883 48.46838608 43.80021332 49.28540497 43.80168152 50.12718201 C43.52508241 52.63893678 42.89425056 54.23860338 41.55444336 56.37231445 C39.25206787 57.5235022 37.91342928 57.51058798 35.35180664 57.53344727 C34.48395538 57.54305481 33.61610413 57.55266235 32.72195435 57.56256104 C31.78237885 57.56681091 30.84280334 57.57106079 29.87475586 57.57543945 C28.91044647 57.58113953 27.94613708 57.5868396 26.9526062 57.5927124 C24.90990295 57.60216869 22.8671844 57.60869887 20.82446289 57.61254883 C17.69902941 57.62225364 14.57425363 57.65327087 11.44897461 57.68481445 C9.4659056 57.69134449 7.48283189 57.69659496 5.49975586 57.70043945 C4.0964653 57.71895966 4.0964653 57.71895966 2.66482544 57.737854 C1.79066986 57.73485291 0.91651428 57.73185181 0.01586914 57.72875977 C-1.13424149 57.73422821 -1.13424149 57.73422821 -2.30758667 57.73980713 C-5.12218307 57.25601008 -6.44891112 56.40895613 -8.44555664 54.37231445 C-8.95349121 52.09558105 -8.95349121 52.09558105 -8.96313477 49.39770508 C-8.98204773 47.88098206 -8.98204773 47.88098206 -9.00134277 46.33361816 C-8.99324585 45.24295044 -8.98514893 44.15228271 -8.97680664 43.02856445 C-8.98063354 41.90792603 -8.98446045 40.7872876 -8.98840332 39.63269043 C-8.9911266 37.2621979 -8.98373648 34.89167553 -8.96704102 32.52124023 C-8.94563889 28.88628341 -8.96683032 25.25330332 -8.99243164 21.6184082 C-8.98978844 19.31762258 -8.98466363 17.01683818 -8.97680664 14.71606445 C-8.98490356 13.62539673 -8.99300049 12.534729 -9.00134277 11.41101074 C-8.98873413 10.39986206 -8.97612549 9.38871338 -8.96313477 8.34692383 C-8.95995239 7.45662476 -8.95677002 6.56632568 -8.95349121 5.64904785 C-8.44555664 3.37231445 -8.44555664 3.37231445 -6.6910553 1.58467102 C-4.2130488 0.24678224 -2.79527772 -0.00230373 0 0 Z M2.55444336 11.37231445 C2.55444336 22.92231445 2.55444336 34.47231445 2.55444336 46.37231445 C12.12444336 46.37231445 21.69444336 46.37231445 31.55444336 46.37231445 C31.55444336 34.82231445 31.55444336 23.27231445 31.55444336 11.37231445 C21.98444336 11.37231445 12.41444336 11.37231445 2.55444336 11.37231445 Z " fill="#000000" transform="translate(304.445556640625,377.627685546875)"/>
<path d="M0 0 C1.30639183 -0.00934319 1.30639183 -0.00934319 2.63917542 -0.01887512 C3.5715654 -0.00966537 4.50395538 -0.00045563 5.46459961 0.0090332 C6.42845078 0.0085347 7.39230194 0.00803619 8.38536072 0.00752258 C10.42033961 0.00986061 12.45532152 0.01957312 14.49023438 0.03613281 C17.60890476 0.05975357 20.72672171 0.0566881 23.84545898 0.05004883 C25.82267763 0.05562477 27.79989268 0.06273413 29.77709961 0.0715332 C30.71151382 0.0706218 31.64592804 0.06971039 32.60865784 0.06877136 C33.91032143 0.08306938 33.91032143 0.08306938 35.23828125 0.09765625 C36.00120987 0.10226364 36.76413849 0.10687103 37.55018616 0.11161804 C39.55444336 0.37231445 39.55444336 0.37231445 42.55444336 2.37231445 C42.93539429 4.6114502 42.93539429 4.6114502 42.94262695 7.43286133 C42.95208344 8.48735474 42.96153992 9.54184814 42.97128296 10.6282959 C42.96521027 11.77100952 42.95913757 12.91372314 42.95288086 14.09106445 C42.95575104 15.25988159 42.95862122 16.42869873 42.96157837 17.63293457 C42.96362275 20.10775231 42.95806691 22.58258608 42.94555664 25.05737305 C42.92950919 28.85672967 42.9453937 32.65502237 42.96459961 36.4543457 C42.96261725 38.85408765 42.95877371 41.25382893 42.95288086 43.65356445 C42.9619899 45.36763489 42.9619899 45.36763489 42.97128296 47.11633301 C42.96182648 48.17082642 42.95237 49.22531982 42.94262695 50.31176758 C42.94024017 51.24283325 42.93785339 52.17389893 42.93539429 53.13317871 C42.80968048 53.87209351 42.68396667 54.6110083 42.55444336 55.37231445 C39.4511534 57.44117443 38.75842441 57.62571421 35.23828125 57.64697266 C34.37050552 57.65650467 33.5027298 57.66603668 32.60865784 57.67585754 C31.67424362 57.67494614 30.73982941 57.67403473 29.77709961 57.6730957 C28.81420517 57.67738083 27.85131073 57.68166595 26.85923767 57.68608093 C24.82250759 57.69182471 22.785757 57.69232415 20.74902344 57.68798828 C17.63237505 57.68483009 14.51667736 57.70828091 11.40014648 57.73364258 C9.42163206 57.73591573 7.44311508 57.73661899 5.46459961 57.7355957 C4.53220963 57.74480545 3.59981964 57.7540152 2.63917542 57.76350403 C1.76824753 57.75727524 0.89731964 57.75104645 0 57.74462891 C-1.14558632 57.74557304 -1.14558632 57.74557304 -2.3143158 57.74653625 C-5.12077833 57.25375316 -6.45212126 56.40340533 -8.44555664 54.37231445 C-8.95349121 52.09558105 -8.95349121 52.09558105 -8.96313477 49.39770508 C-8.98204773 47.88098206 -8.98204773 47.88098206 -9.00134277 46.33361816 C-8.99324585 45.24295044 -8.98514893 44.15228271 -8.97680664 43.02856445 C-8.98063354 41.90792603 -8.98446045 40.7872876 -8.98840332 39.63269043 C-8.9911266 37.2621979 -8.98373648 34.89167553 -8.96704102 32.52124023 C-8.94563889 28.88628341 -8.96683032 25.25330332 -8.99243164 21.6184082 C-8.98978844 19.31762258 -8.98466363 17.01683818 -8.97680664 14.71606445 C-8.98490356 13.62539673 -8.99300049 12.534729 -9.00134277 11.41101074 C-8.98873413 10.39986206 -8.97612549 9.38871338 -8.96313477 8.34692383 C-8.95995239 7.45662476 -8.95677002 6.56632568 -8.95349121 5.64904785 C-8.44555664 3.37231445 -8.44555664 3.37231445 -6.6910553 1.58467102 C-4.2130488 0.24678224 -2.79527772 -0.00230373 0 0 Z M2.55444336 11.37231445 C2.55444336 22.92231445 2.55444336 34.47231445 2.55444336 46.37231445 C12.12444336 46.37231445 21.69444336 46.37231445 31.55444336 46.37231445 C31.55444336 34.82231445 31.55444336 23.27231445 31.55444336 11.37231445 C21.98444336 11.37231445 12.41444336 11.37231445 2.55444336 11.37231445 Z " fill="#000000" transform="translate(373.445556640625,377.627685546875)"/>
<path d="M0 0 C1.24817001 -0.00953201 2.49634003 -0.01906403 3.78233337 -0.02888489 C5.14598621 -0.02862346 6.50963905 -0.02768639 7.87329102 -0.02612305 C9.27189766 -0.03001034 10.67050312 -0.03434508 12.06910706 -0.03910828 C15.00037462 -0.04656949 17.93152175 -0.04628004 20.86279297 -0.04101562 C24.61674311 -0.03522186 28.37019972 -0.05214961 32.12406826 -0.0753603 C35.01258724 -0.09010207 37.90098749 -0.09096875 40.78953743 -0.08785057 C42.17341146 -0.08836359 43.55729216 -0.0935978 44.94112968 -0.10366249 C46.87738141 -0.11601627 48.81373285 -0.10729454 50.75 -0.09765625 C51.85125717 -0.09828568 52.95251434 -0.0989151 54.08714294 -0.0995636 C57.24745097 0.31503189 58.6168068 1.14820018 60.93969727 3.2746582 C60.06469727 10.1496582 60.06469727 10.1496582 58.93969727 11.2746582 C56.86452184 11.38462058 54.78557167 11.42378678 52.70751953 11.43579102 C51.73188553 11.44323837 51.73188553 11.44323837 50.73654175 11.45083618 C48.57638507 11.46548885 46.4163018 11.47226458 44.25610352 11.4777832 C42.7601674 11.48353172 41.26423133 11.48928948 39.76829529 11.49505615 C36.62840429 11.50557472 33.48853896 11.51141189 30.34863281 11.51489258 C26.3187054 11.52038183 22.28911511 11.54441509 18.25929356 11.57286453 C15.16842141 11.59145692 12.07763104 11.59669466 8.98670769 11.59822845 C7.50069267 11.6012628 6.01467935 11.60931754 4.52871895 11.62241364 C2.45263895 11.63940557 0.37739019 11.63761153 -1.69873047 11.63110352 C-3.47291603 11.63657196 -3.47291603 11.63657196 -5.28294373 11.64215088 C-6.1994722 11.5208783 -7.11600067 11.39960571 -8.06030273 11.2746582 C-10.06030273 8.2746582 -10.06030273 8.2746582 -9.87280273 5.2121582 C-8.37532784 -0.2017895 -4.94785576 0.02071559 0 0 Z " fill="#000000" transform="translate(112.060302734375,326.725341796875)"/>
</svg>
