<?xml version="1.0" encoding="UTF-8"?>
<svg version="1.1" xmlns="http://www.w3.org/2000/svg" width="512" height="512">
<path d="M0 0 C5.15680601 3.08916064 9.9965026 6.60295604 14.78076172 10.23901367 C26.54967745 19.15402622 36.34608693 21.22612411 51.1484375 19.4609375 C63.29458904 18.098003 75.9847608 17.40227348 86.4609375 24.5859375 C95.95480458 32.56286767 100.40579445 43.0523358 105.29101562 54.1875 C111.12405251 66.91929305 118.14659341 71.37678457 130.7109375 76.9609375 C142.35971503 82.15669516 154.1134896 88.0337891 159.3046875 100.421875 C162.14288146 109.38320963 161.8188036 118.64387288 160.7734375 127.8984375 C158.70598425 146.262287 163.36163038 156.3915394 173.8984375 171.0234375 C181.55990532 181.84267247 184.25618915 190.69379019 183.2734375 203.9609375 C181.47375707 212.20541949 176.13265993 219.18684088 171.51416016 226.10253906 C169.4128141 229.25000978 167.33943916 232.41519593 165.2734375 235.5859375 C164.88776611 236.16569336 164.50209473 236.74544922 164.10473633 237.34277344 C158.57107699 245.82380293 159.6346653 256.24626473 160.7734375 266.0234375 C162.29580992 279.50091101 162.15462473 291.76299273 153.578125 302.79296875 C146.93752987 309.03963027 138.86136383 312.77522047 130.6484375 316.5234375 C119.36425808 321.36924882 119.36425808 321.36924882 110.35107422 329.42431641 C108.66155996 334.9690159 110.90424985 338.87527651 113.0546875 344.08203125 C113.49050644 345.19010132 113.92632538 346.29817139 114.37535095 347.43981934 C115.5711906 350.46960313 116.7867533 353.49055175 118.01081467 356.50901413 C119.29027296 359.67891449 120.54311752 362.859269 121.79711914 366.03930664 C123.35938231 369.99732803 124.92341426 373.95458597 126.49806213 377.90769958 C131.58277943 390.6772247 136.48910273 403.51130552 141.36767578 416.36087036 C143.09302987 420.90470262 144.82267275 425.44688883 146.55471802 429.98817444 C147.35255169 432.08164855 148.14856927 434.17581586 148.94259644 436.27073669 C150.71907613 440.94736554 152.52275441 445.60673526 154.42236328 450.23486328 C154.91833763 451.45744591 154.91833763 451.45744591 155.42433167 452.70472717 C156.02829324 454.18637836 156.64305379 455.66370473 157.27183533 457.13499451 C159.22306011 461.94522486 159.70301318 465.7626904 159.2734375 470.9609375 C157.3359375 473.4609375 157.3359375 473.4609375 154.2734375 474.9609375 C148.14227285 475.52632674 141.91400524 474.73025328 135.8203125 474.05078125 C134.04949424 473.86378947 132.27866045 473.67694478 130.5078125 473.49023438 C127.75361312 473.19426145 124.99970919 472.89584065 122.24609375 472.59448242 C119.56314373 472.30264025 116.87934377 472.01997904 114.1953125 471.73828125 C113.37440125 471.64562485 112.55348999 471.55296844 111.70770264 471.45750427 C104.76267521 470.59091266 104.76267521 470.59091266 98.56347656 473.29272461 C98.06041992 473.8522583 97.55736328 474.41179199 97.0390625 474.98828125 C96.46969971 475.61049561 95.90033691 476.23270996 95.3137207 476.8737793 C94.72292725 477.5419165 94.13213379 478.21005371 93.5234375 478.8984375 C92.90364014 479.58139893 92.28384277 480.26436035 91.64526367 480.96801758 C89.84423477 482.95658041 88.05764495 484.95728765 86.2734375 486.9609375 C85.43941406 487.88390625 84.60539062 488.806875 83.74609375 489.7578125 C82.67681641 490.94117188 82.67681641 490.94117188 81.5859375 492.1484375 C80.89113281 492.91285156 80.19632812 493.67726563 79.48046875 494.46484375 C77.80346521 496.36149023 76.1941511 498.27593479 74.59765625 500.23828125 C67.90221188 508.2902657 67.90221188 508.2902657 63.75 510 C61.12189223 510.23574389 59.70282441 509.96735516 57.2734375 508.9609375 C53.154694 504.26409268 50.94119891 498.13770537 48.83984375 492.33984375 C48.52914948 491.50660583 48.2184552 490.67336792 47.89834595 489.81488037 C47.22393369 488.00400192 46.55338919 486.19167926 45.88632202 484.37808228 C44.05223183 479.39354959 42.18805058 474.42024952 40.328125 469.4453125 C39.93116928 468.38125687 39.53421356 467.31720123 39.12522888 466.22090149 C34.2463776 453.16612587 29.22079377 440.16802305 24.19404221 427.16968918 C23.46488897 425.28365838 22.73637083 423.39738358 22.00808716 421.51101685 C20.63253616 417.9484245 19.25598921 414.38621918 17.87890625 410.82421875 C17.47225739 409.77175964 17.06560852 408.71930054 16.64663696 407.63494873 C14.23026366 401.39338151 11.77400679 395.16926036 9.2734375 388.9609375 C5.9574881 388.9609375 3.22925102 390.90351009 0.3359375 392.3984375 C-8.70435085 397.04273619 -17.01125234 398.90177859 -27.10546875 395.984375 C-32.35714161 393.84163989 -37.18772453 391.36506598 -41.7265625 387.9609375 C-44.90480332 394.03754885 -47.44373379 400.18665097 -49.82421875 406.61328125 C-50.40470474 408.16284515 -50.40470474 408.16284515 -50.99691772 409.74371338 C-51.83031538 411.96882408 -52.66192446 414.19460535 -53.49191284 416.42098999 C-55.70740789 422.3603723 -57.93987877 428.29336554 -60.171875 434.2265625 C-60.62930588 435.44309006 -61.08673676 436.65961761 -61.55802917 437.91300964 C-65.9632253 449.61550534 -70.42473968 461.29583802 -74.93234253 472.95925903 C-75.74682814 475.0681312 -76.55946159 477.17771974 -77.37014771 479.28805542 C-78.50347176 482.23697032 -79.64335586 485.18326466 -80.78515625 488.12890625 C-81.27464249 489.40692108 -81.27464249 489.40692108 -81.77401733 490.71075439 C-87.71394893 505.94832393 -87.71394893 505.94832393 -90.7265625 508.9609375 C-93.8539265 509.62473249 -96.60069218 509.63746867 -99.7265625 508.9609375 C-102.89787444 506.72065292 -105.2519352 503.93357071 -107.7265625 500.9609375 C-108.80895686 499.7309439 -109.89228011 498.50176706 -110.9765625 497.2734375 C-111.82154297 496.29117188 -111.82154297 496.29117188 -112.68359375 495.2890625 C-115.75802393 491.78550536 -118.93611546 488.37926194 -122.11230469 484.96801758 C-122.5921582 484.45134521 -123.07201172 483.93467285 -123.56640625 483.40234375 C-124.08565674 482.87326416 -124.60490723 482.34418457 -125.13989258 481.79907227 C-126.7265625 479.9609375 -126.7265625 479.9609375 -128.1159668 477.49584961 C-130.10077433 474.38704638 -131.50416535 472.81160058 -134.7265625 470.9609375 C-141.97125827 469.95792071 -149.47944026 471.43211189 -156.6640625 472.3984375 C-159.65520167 472.75364584 -162.64767428 473.09530048 -165.64051819 473.43580627 C-167.49629762 473.65209549 -169.35082368 473.8795467 -171.20359802 474.120224 C-185.67039851 475.96803823 -185.67039851 475.96803823 -190.7890625 473.4609375 C-193.44615253 470.03243424 -193.24343644 467.10120716 -192.7265625 462.9609375 C-191.76865692 459.44785545 -190.44812406 456.11389555 -189.08984375 452.73828125 C-188.70284302 451.74451981 -188.31584229 450.75075836 -187.91711426 449.72688293 C-186.63652483 446.44585462 -185.33761886 443.17239146 -184.0390625 439.8984375 C-183.13673605 437.59402257 -182.23596507 435.28899802 -181.33666992 432.98339844 C-179.92668069 429.36959999 -178.5154951 425.75630719 -177.09931946 422.14492798 C-172.28511593 409.86818131 -167.57459423 397.5524681 -162.87997437 385.22952271 C-161.16361965 380.72576638 -159.44297036 376.22365789 -157.72135925 371.72190857 C-156.91338631 369.60244739 -156.10926953 367.48151159 -155.3092804 365.35902405 C-153.2694197 359.95135987 -151.17191913 354.57805692 -148.97412109 349.23242188 C-148.53613693 348.14052551 -148.09815277 347.04862915 -147.64689636 345.92364502 C-146.81178648 343.84364832 -145.95562943 341.77193768 -145.07539368 339.71063232 C-144.04062185 337.09602799 -143.16235368 334.73898081 -142.7265625 331.9609375 C-146.58614947 323.52741054 -155.89422971 320.25052931 -163.90234375 316.5390625 C-164.81959229 316.11270508 -165.73684082 315.68634766 -166.68188477 315.24707031 C-168.50265369 314.40913804 -170.3297753 313.58483243 -172.16381836 312.77636719 C-181.75961329 308.39905443 -188.49742693 302.75472513 -192.7265625 292.9609375 C-195.79021414 284.35353529 -195.26161791 275.00891849 -194.2265625 266.0234375 C-192.39541234 249.43376362 -194.59258155 239.757779 -204.50268555 226.72338867 C-213.43257644 214.89431883 -217.78603713 204.93805614 -216.7265625 189.9609375 C-214.97518621 180.30142363 -208.65046532 172.65602829 -203.06884766 164.85742188 C-201.17630371 162.18348929 -199.37872816 159.46315264 -197.6015625 156.7109375 C-197.06273437 155.88078125 -196.52390625 155.050625 -195.96875 154.1953125 C-191.84691657 146.78119703 -193.27344983 136.08159057 -194.2265625 127.8984375 C-195.54943357 116.18713773 -196.06063364 103.80159065 -189.1015625 93.7109375 C-181.05360612 84.29902925 -170.63246692 79.82739719 -159.5 74.94335938 C-149.48411404 70.35460805 -143.91989179 65.36912614 -139.2265625 55.3359375 C-138.94159912 54.74401611 -138.65663574 54.15209473 -138.36303711 53.54223633 C-137.17526184 51.07321402 -136.01786007 48.59072981 -134.86767578 46.10400391 C-129.68024952 34.9390528 -124.62068446 26.1863125 -113.12109375 20.8359375 C-108.10783292 19.00401185 -103.33542572 18.80092022 -98.0390625 18.8359375 C-97.32572754 18.83787109 -96.61239258 18.83980469 -95.87744141 18.84179688 C-92.08891798 18.87270257 -88.3642147 19.02269182 -84.6015625 19.4609375 C-80.6214586 19.91062883 -76.66888799 20.15803698 -72.6640625 20.2734375 C-71.00697266 20.32951172 -71.00697266 20.32951172 -69.31640625 20.38671875 C-60.7826221 19.37455066 -54.11456155 14.4227908 -47.2890625 9.5234375 C-32.89330651 -0.7897628 -17.3313065 -8.21456445 0 0 Z M-43.51098633 26.69165039 C-52.71329654 33.24257018 -61.09428485 36.16078784 -72.4140625 36.0859375 C-73.12667236 36.08400391 -73.83928223 36.08207031 -74.57348633 36.08007812 C-78.38448735 36.04896438 -82.12412026 35.89727953 -85.9140625 35.4609375 C-98.31815629 33.82741558 -98.31815629 33.82741558 -109.89086914 37.48291016 C-116.19593929 42.55950208 -119.42147056 51.20589787 -122.6640625 58.3984375 C-131.22342634 76.73400012 -139.99914728 84.34696111 -158.61938477 92.14648438 C-165.90236256 95.27684766 -174.31225944 99.1411629 -177.7890625 106.7109375 C-179.64403537 113.15976936 -178.99655593 119.94452301 -178.2265625 126.5234375 C-175.96132319 147.34365171 -179.52393149 161.34971176 -192.4140625 178.2109375 C-197.59624318 185.02028754 -201.64952278 190.47782519 -201.23046875 199.33203125 C-199.79024824 206.84573981 -194.87446869 212.86109013 -190.2890625 218.7734375 C-184.0917478 226.79534231 -177.61031244 236.71008151 -177.59375 247.15625 C-177.59084961 248.34637695 -177.59084961 248.34637695 -177.58789062 249.56054688 C-177.59240234 250.39392578 -177.59691406 251.22730469 -177.6015625 252.0859375 C-177.60349609 252.94251953 -177.60542969 253.79910156 -177.60742188 254.68164062 C-177.64201983 259.73678601 -177.89722537 264.68094465 -178.4921875 269.703125 C-179.25427068 277.0445263 -179.73092109 284.48401061 -175.7265625 290.9609375 C-169.1220097 297.37196205 -160.26952399 300.65619038 -152.01367188 304.37304688 C-133.9419697 312.73490786 -127.65853094 324.40600212 -119.63330078 341.90039062 C-116.44872435 348.77641522 -113.76740047 354.44051852 -106.7265625 357.9609375 C-100.79844897 359.77161653 -94.43179338 359.21557608 -88.3515625 358.4609375 C-65.01560859 355.98311038 -51.0352998 361.41727827 -32.2890625 374.8359375 C-26.91190995 378.61661083 -21.8862977 381.7475871 -15.01171875 381.4296875 C-6.094542 379.60052304 1.10944094 373.67257598 8.109375 368.21484375 C15.57175663 362.89904844 24.34202113 357.84211823 33.6875 357.828125 C34.94554443 357.82522461 34.94554443 357.82522461 36.22900391 357.82226562 C37.10991699 357.82677734 37.99083008 357.83128906 38.8984375 357.8359375 C40.25267822 357.83883789 40.25267822 357.83883789 41.63427734 357.84179688 C46.84137176 357.8756764 51.94036385 358.10617734 57.11328125 358.7265625 C64.16409425 359.49156933 69.9417511 359.5613082 76.2734375 355.9609375 C80.41448748 352.33916204 82.79262835 348.50966626 85.0859375 343.5859375 C85.7758615 342.16204127 86.46730773 340.73888175 87.16015625 339.31640625 C87.50868652 338.59501465 87.8572168 337.87362305 88.21630859 337.13037109 C98.23712515 316.56571154 108.91090185 308.44318623 129.69995117 299.19384766 C135.10238341 296.73587439 140.11262891 294.18176539 143.515625 289.109375 C146.06665705 281.96018642 145.65570892 274.90834623 144.7734375 267.4609375 C142.31754522 244.55149461 148.08480978 230.90533757 161.1484375 212.4609375 C165.92683928 205.63148159 168.72918021 200.44865769 167.2734375 191.9609375 C164.4077764 184.31917456 159.12198614 177.98287939 154.25512695 171.53100586 C147.12628602 161.9303743 144.07964467 153.12668844 144.1484375 141.2734375 C144.15037109 140.4683374 144.15230469 139.6632373 144.15429688 138.83374023 C144.18994293 133.92696209 144.46846562 129.12915312 145.0390625 124.25390625 C145.78775104 116.92923673 146.34301961 109.39383838 142.2734375 102.9609375 C136.43468914 97.3313431 129.73309139 94.05940893 122.3359375 90.9609375 C104.00416314 82.9019461 96.56634519 74.4918649 88.61132812 56.30395508 C83.19535011 43.64997219 83.19535011 43.64997219 72.6328125 35.50390625 C66.05279186 33.98962998 59.17135245 34.70085166 52.5234375 35.4609375 C30.6942359 37.88640434 17.68092212 32.32842305 -0.01806641 19.83203125 C-17.61999607 7.5024085 -27.79784764 15.33627041 -43.51098633 26.69165039 Z M-132.7265625 352.9609375 C-139.78558349 370.42654163 -146.60262959 387.97469045 -153.2890625 405.5859375 C-155.05979812 410.24532517 -156.83213734 414.9040997 -158.60546875 419.5625 C-159.03163483 420.68344055 -159.4578009 421.8043811 -159.8968811 422.95928955 C-163.21447703 431.6671974 -166.60366136 440.34593714 -170.05775452 449.00064087 C-170.40986496 449.89036591 -170.7619754 450.78009094 -171.12475586 451.69677734 C-171.4353746 452.47564301 -171.74599335 453.25450867 -172.06602478 454.05697632 C-172.83581708 455.93997638 -172.83581708 455.93997638 -172.7265625 457.9609375 C-171.26802856 457.82461914 -171.26802856 457.82461914 -169.7800293 457.68554688 C-166.12195817 457.34501421 -162.46330034 457.01117246 -158.80444336 456.67919922 C-157.23038628 456.53547467 -155.65648684 456.39001147 -154.08276367 456.24267578 C-148.96725937 455.76446966 -143.85045732 455.33835555 -138.7265625 454.9609375 C-137.61845215 454.87199219 -136.5103418 454.78304687 -135.36865234 454.69140625 C-130.70176758 454.47048863 -128.47842204 454.46696215 -124.4921875 457.0859375 C-123.66203125 458.0346875 -122.831875 458.9834375 -121.9765625 459.9609375 C-121.29110352 460.7180603 -121.29110352 460.7180603 -120.59179688 461.49047852 C-119.27521629 462.95580291 -117.99964099 464.457664 -116.7265625 465.9609375 C-116.11296875 466.65058594 -115.499375 467.34023438 -114.8671875 468.05078125 C-113.775822 469.27986669 -112.69624214 470.51952174 -111.62890625 471.76953125 C-109.07009174 474.71715946 -106.43081931 477.58769086 -103.7890625 480.4609375 C-103.29148437 481.00226318 -102.79390625 481.54358887 -102.28125 482.10131836 C-101.09707829 483.38852461 -99.91192608 484.67482873 -98.7265625 485.9609375 C-96.70539443 483.93976943 -96.15180332 482.85275197 -95.16455078 480.24462891 C-94.86815704 479.46976135 -94.57176331 478.6948938 -94.26638794 477.89654541 C-93.78647903 476.61744293 -93.78647903 476.61744293 -93.296875 475.3125 C-92.95413544 474.41239197 -92.61139587 473.51228394 -92.25827026 472.5848999 C-91.11786647 469.58705806 -89.98484429 466.58647812 -88.8515625 463.5859375 C-88.0579173 461.49666979 -87.26363617 459.40764354 -86.46875 457.31884766 C-85.21283244 454.01839358 -83.95731175 450.71779432 -82.70367432 447.41647339 C-78.18983457 435.53176083 -73.6277908 423.66570137 -69.06048584 411.80145264 C-67.7401985 408.37136365 -66.42099833 404.94085827 -65.10205078 401.51025391 C-64.28942499 399.39744672 -63.47676404 397.28465305 -62.6640625 395.171875 C-62.10898514 393.7280545 -62.10898514 393.7280545 -61.54269409 392.25506592 C-61.02849411 390.9191037 -61.02849411 390.9191037 -60.50390625 389.55615234 C-60.20734131 388.78524261 -59.91077637 388.01433289 -59.60522461 387.22006226 C-58.96487461 385.57366084 -58.2994445 383.93694918 -57.61938477 382.30654907 C-56.61281559 380.04791188 -56.61281559 380.04791188 -56.6640625 377.8359375 C-58.39993461 374.77263377 -61.49764534 373.93781099 -64.7265625 372.9609375 C-67.55530124 372.60518523 -70.317682 372.62895354 -73.1640625 372.7109375 C-73.87626953 372.71609375 -74.58847656 372.72125 -75.32226562 372.7265625 C-80.18965337 372.79729656 -84.90082631 373.33117814 -89.7265625 373.9609375 C-92.41509926 380.97573511 -95.10151491 387.99134192 -97.78530598 395.0079565 C-99.03187562 398.26684537 -100.27914448 401.52546282 -101.52807617 404.78344727 C-102.96748317 408.53840432 -104.40373147 412.29456285 -105.83984375 416.05078125 C-106.28370926 417.20738754 -106.72757477 418.36399384 -107.18489075 419.5556488 C-109.51202126 425.65003638 -111.71878378 431.7537704 -113.7265625 437.9609375 C-121.79295009 439.30250302 -121.79295009 439.30250302 -125.2890625 438.0234375 C-127.52176001 434.82000194 -127.21130037 431.69113818 -126.7265625 427.9609375 C-125.53387471 423.82479083 -123.95414776 419.86748111 -122.3515625 415.875 C-121.9076416 414.73686859 -121.4637207 413.59873718 -121.00634766 412.42611694 C-119.59238355 408.80761753 -118.16026551 405.19665599 -116.7265625 401.5859375 C-115.29641581 397.95250107 -113.87005141 394.31762185 -112.44677734 390.68148804 C-111.56125789 388.42262997 -110.67107771 386.16559257 -109.77587891 383.91055298 C-109.17525635 382.38789322 -109.17525635 382.38789322 -108.5625 380.83447266 C-108.20720215 379.9392691 -107.8519043 379.04406555 -107.48583984 378.12173462 C-106.61605702 376.02817365 -106.61605702 376.02817365 -106.7265625 373.9609375 C-107.52320313 373.65800781 -108.31984375 373.35507812 -109.140625 373.04296875 C-119.47104388 368.95855739 -124.59773428 364.73471888 -130.30859375 355.19140625 C-130.77652344 354.45535156 -131.24445313 353.71929687 -131.7265625 352.9609375 C-132.0565625 352.9609375 -132.3865625 352.9609375 -132.7265625 352.9609375 Z M98.2734375 352.9609375 C97.8609375 353.68539063 97.4484375 354.40984375 97.0234375 355.15625 C90.80322555 365.56955125 84.56245928 369.92810134 73.2734375 373.9609375 C75.23481611 380.90734877 77.59204598 387.58768772 80.28515625 394.28125 C81.05069553 396.21722447 81.81565235 398.15342934 82.58007812 400.08984375 C83.77231622 403.09836861 84.96861507 406.10504728 86.17504883 409.10791016 C87.34908434 412.03596379 88.50582145 414.97038391 89.66015625 417.90625 C90.02259933 418.79603546 90.38504242 419.68582092 90.75846863 420.60256958 C92.85702296 425.98449911 93.79502817 430.17704962 93.2734375 435.9609375 C91.8359375 438.0234375 91.8359375 438.0234375 89.2734375 438.9609375 C86.2171368 438.8872917 83.28429252 438.46168944 80.2734375 437.9609375 C79.87922607 436.74220947 79.48501465 435.52348145 79.07885742 434.26782227 C77.03003265 428.12613683 74.70604532 422.09438602 72.38671875 416.05078125 C71.92484665 414.84273331 71.46297455 413.63468536 70.98710632 412.39002991 C69.77064564 409.20838473 68.55189857 406.02762036 67.3326416 402.8470459 C66.08428693 399.58932388 64.83814029 396.33075751 63.59179688 393.07226562 C61.15448055 386.70100388 58.71474308 380.3306717 56.2734375 373.9609375 C39.08371452 371.44465599 39.08371452 371.44465599 23.2734375 376.9609375 C23.86269053 380.21453443 24.6349563 383.20558014 25.8137207 386.29321289 C26.13020569 387.12788589 26.44669067 387.9625589 26.77276611 388.82252502 C27.11974548 389.7254277 27.46672485 390.62833038 27.82421875 391.55859375 C28.19061462 392.52131699 28.5570105 393.48404022 28.93450928 394.47593689 C30.14760282 397.65999873 31.36653557 400.84178674 32.5859375 404.0234375 C33.43242252 406.23885121 34.27869208 408.45434726 35.12475586 410.66992188 C36.9094728 415.34095711 38.69705497 420.01088407 40.48632812 424.68017578 C42.83571213 430.81315115 45.17511783 436.94988064 47.51167297 443.0877533 C49.34009362 447.8880165 51.17336865 452.68641527 53.00790405 457.48434448 C53.89291947 459.80118252 54.77624237 462.11866781 55.65786743 464.4367981 C56.89050115 467.67599197 58.1299083 470.91251262 59.37109375 474.1484375 C59.73797302 475.11692123 60.10485229 476.08540497 60.48284912 477.08323669 C60.82245667 477.96455765 61.16206421 478.8458786 61.51196289 479.75390625 C61.80551163 480.5224292 62.09906036 481.29095215 62.40150452 482.08276367 C63.22790249 484.14447777 63.22790249 484.14447777 65.2734375 485.9609375 C69.43846518 481.90984675 73.38174869 477.74665983 77.17578125 473.34765625 C79.91030086 470.23631271 82.71299085 467.19115596 85.5234375 464.1484375 C86.04317139 463.58495605 86.56290527 463.02147461 87.09838867 462.44091797 C88.48474929 460.94264875 89.87875009 459.4514587 91.2734375 457.9609375 C91.72904053 457.41284424 92.18464355 456.86475098 92.65405273 456.30004883 C98.58253833 451.39763009 115.45753973 455.75845163 122.9609375 456.4609375 C124.54878686 456.6059214 126.13667732 456.75045594 127.72460938 456.89453125 C131.57471159 457.24482737 135.42420846 457.60117858 139.2734375 457.9609375 C137.43070726 451.54588328 135.36504125 445.29514678 132.9296875 439.08203125 C132.44696129 437.83642677 132.44696129 437.83642677 131.95448303 436.56565857 C130.89785873 433.84178782 129.83582127 431.12006653 128.7734375 428.3984375 C128.02825657 426.48270437 127.2833898 424.56684901 126.53881836 422.65087891 C125.36233811 419.62384418 124.18546761 416.5969656 123.00706482 413.57067871 C120.42976273 406.94924086 117.86951492 400.32146141 115.32156372 393.68867493 C113.5851682 389.16858148 111.84473074 384.65004921 110.10400391 380.13162231 C109.25934999 377.93637996 108.41641033 375.74047723 107.57519531 373.54391479 C106.39748056 370.47007112 105.21318216 367.39884207 104.02734375 364.328125 C103.67599869 363.40623886 103.32465363 362.48435272 102.96266174 361.53453064 C102.47369667 360.27389549 102.47369667 360.27389549 101.97485352 358.98779297 C101.69303726 358.25446747 101.41122101 357.52114197 101.12086487 356.76559448 C100.30802998 354.76919813 100.30802998 354.76919813 98.2734375 352.9609375 Z " fill="#000000" transform="translate(272.7265625,3.0390625)"/>
<path d="M0 0 C4.43255227 1.30714207 6.54513771 4.94863745 9.06640625 8.609375 C9.63512451 9.43066895 9.63512451 9.43066895 10.21533203 10.26855469 C19.35133338 23.65158168 25.90213698 37.81449233 30.44140625 53.359375 C30.79960449 54.580802 30.79960449 54.580802 31.16503906 55.8269043 C34.47225918 67.85566112 35.4345284 79.923391 35.37890625 92.359375 C35.37153442 94.32716919 35.37153442 94.32716919 35.36401367 96.3347168 C35.24332648 106.36908341 34.47163211 115.8677368 32.06640625 125.609375 C31.90011719 126.30208496 31.73382813 126.99479492 31.5625 127.70849609 C26.010669 150.14714639 15.23711245 170.22272295 0.06640625 187.609375 C-0.53945313 188.33640625 -1.1453125 189.0634375 -1.76953125 189.8125 C-5.78582132 194.57389365 -10.10996786 198.6745244 -14.93359375 202.609375 C-16.31998047 203.75212891 -16.31998047 203.75212891 -17.734375 204.91796875 C-48.81334293 229.99524155 -86.29775066 239.38406525 -125.81542969 236.39111328 C-152.32151059 233.53576303 -181.77402025 222.7689485 -200.93359375 203.609375 C-201.51330389 196.53691123 -201.51330389 196.53691123 -199.37109375 193.109375 C-195.92315707 190.98756781 -193.95915856 191.15441712 -189.93359375 191.609375 C-186.91637943 193.13489521 -184.27560289 195.10725839 -181.55859375 197.109375 C-154.17796874 216.25775066 -120.26577617 224.15696716 -87.12109375 218.546875 C-61.21477076 213.45722412 -39.05756199 201.67436129 -19.93359375 183.609375 C-19.18335938 182.92359375 -18.433125 182.2378125 -17.66015625 181.53125 C-2.4046954 167.07870814 8.78386457 146.86491582 14.06640625 126.609375 C14.25960449 125.90361328 14.45280273 125.19785156 14.65185547 124.47070312 C20.36065615 102.97765109 19.97513257 80.00605282 14.06640625 58.609375 C13.8844873 57.93664551 13.70256836 57.26391602 13.51513672 56.57080078 C9.17074236 41.00629945 1.53585705 27.55619673 -7.93359375 14.609375 C-10.41398282 10.8887914 -10.39696578 9.01140929 -9.93359375 4.609375 C-7.51530348 0.67965332 -4.61950762 -0.3062657 0 0 Z " fill="#000000" transform="translate(364.93359375,107.390625)"/>
<path d="M0 0 C0.74926758 0.19335938 1.49853516 0.38671875 2.27050781 0.5859375 C19.35747191 5.16318129 35.80227098 12.36811048 50 23 C51.23943359 23.87785156 51.23943359 23.87785156 52.50390625 24.7734375 C57.57791586 28.67380662 57.57791586 28.67380662 58.66015625 32.07421875 C58.92642815 35.76788788 58.25237993 37.70308244 55.875 40.5 C52.41732782 42.30400287 50.86745919 42.47882828 47 42 C44.34072005 40.60077491 42.01601354 38.81145458 39.625 37 C26.47527082 27.54929786 12.56398927 21.38938673 -3 17 C-4.20140625 16.65839844 -5.4028125 16.31679687 -6.640625 15.96484375 C-38.16021629 8.63073972 -72.75602227 15.04334771 -100.28515625 31.6171875 C-106.19808853 35.3302085 -111.64379446 39.53072113 -117 44 C-117.94488281 44.77988281 -118.88976562 45.55976562 -119.86328125 46.36328125 C-143.15307205 66.49066764 -157.68225015 96.55111816 -161 127 C-161.80976195 143.41033203 -161.34790071 159.11692651 -157 175 C-156.82871582 175.65677734 -156.65743164 176.31355469 -156.48095703 176.99023438 C-152.36372222 192.38339277 -144.30684899 206.6819552 -134.6171875 219.23828125 C-132.71543234 222.48596458 -132.50813136 224.29561431 -133 228 C-135.46040728 231.32878632 -136.89610387 232.79301948 -141 233.5625 C-145.93630403 232.63694299 -148.38685642 229.79618644 -151.39453125 225.890625 C-152.212088 224.68484577 -153.01755652 223.47080606 -153.8125 222.25 C-154.24336914 221.59314209 -154.67423828 220.93628418 -155.11816406 220.25952148 C-175.35819627 188.74556728 -183.94282693 149.17394587 -176.03515625 112.21484375 C-175.69913871 110.80770772 -175.35364168 109.40281045 -175 108 C-174.80132324 107.20480957 -174.60264648 106.40961914 -174.39794922 105.59033203 C-168.72989908 83.64415139 -158.82657653 64.19882877 -144 47 C-142.75089844 45.54980469 -142.75089844 45.54980469 -141.4765625 44.0703125 C-123.28943655 23.39080324 -98.74138709 7.92219184 -72 1 C-71.25073242 0.80535156 -70.50146484 0.61070313 -69.72949219 0.41015625 C-47.8393583 -4.9852372 -21.91635511 -5.71460936 0 0 Z " fill="#000000" transform="translate(290,59)"/>
<path d="M0 0 C7.92964045 5.45016586 14.7524819 12.28741315 21.70166016 18.90380859 C23.66539296 20.75606568 25.67266408 22.55055414 27.7109375 24.3203125 C28.60039062 25.09761719 28.60039062 25.09761719 29.5078125 25.890625 C30.85252359 27.03420409 32.22083352 28.15017795 33.6015625 29.25 C40.2181734 34.7054176 45.88093845 41.7311334 47.3359375 50.4453125 C48.04247022 62.87757085 47.51717508 72.45953897 39.265625 82.3203125 C29.65464103 92.90406813 17.05804966 99.82540452 2.6875 100.65625 C-4.00604639 100.87499335 -9.91541431 100.56993555 -16.4140625 98.7578125 C-22.216734 97.21803726 -25.84126443 97.93566032 -31.5 99.66015625 C-44.63985343 102.92078655 -58.48744506 99.9641149 -69.99609375 93.23828125 C-79.49748012 86.85301574 -87.64713703 78.73839837 -90.6640625 67.4453125 C-91.73003956 54.9014894 -90.63935141 44.63823784 -82.55859375 34.51171875 C-78.56924159 30.16044598 -74.11324992 26.31527809 -69.6640625 22.4453125 C-68.95894531 21.8265625 -68.25382812 21.2078125 -67.52734375 20.5703125 C-66.24809298 19.4493463 -64.96555343 18.33212172 -63.6796875 17.21875 C-62.21511115 15.93014988 -60.7695489 14.61983854 -59.3359375 13.296875 C-42.17771593 -2.51242978 -22.49699573 -13.12874531 0 0 Z M-47.6640625 25.4453125 C-49.02936454 26.66459293 -50.40301305 27.87466984 -51.7890625 29.0703125 C-55.66950475 32.4322823 -59.47140647 35.87751711 -63.26953125 39.33203125 C-64.91049504 40.78025541 -66.59776902 42.17717364 -68.3203125 43.52734375 C-72.42258757 46.88437218 -74.31901905 50.1226589 -75.0859375 55.28515625 C-75.40751505 62.36879508 -74.40376094 67.11890381 -69.6640625 72.4453125 C-62.81014144 79.70152893 -54.94698837 83.80052516 -44.97265625 84.68359375 C-38.04634719 84.86264119 -32.82183742 83.65374435 -26.34375 81.28125 C-22.02707104 79.93464753 -18.81689786 80.63799924 -14.6640625 82.1953125 C-4.99265622 85.78754912 4.83450719 85.59536252 14.3359375 81.4453125 C21.55632034 77.58351941 28.18230338 72.20919202 31.3359375 64.4453125 C32.23612821 58.46423772 32.22033412 52.98757883 28.9609375 47.7578125 C25.05469899 42.66311935 20.22193961 38.57025509 15.3359375 34.4453125 C14.00042116 33.28114542 12.66693149 32.1146473 11.3359375 30.9453125 C10.6965625 30.38972656 10.0571875 29.83414063 9.3984375 29.26171875 C7.01710034 27.16451841 4.6791859 25.02245547 2.3359375 22.8828125 C-5.95068723 15.43501788 -12.45687894 9.78802732 -24.09765625 10.15234375 C-34.25327525 11.31166099 -40.66108736 18.71131309 -47.6640625 25.4453125 Z " fill="#000000" transform="translate(277.6640625,195.5546875)"/>
<path d="M0 0 C3.73439819 2.62297016 6.05686658 5.67293641 8.296875 9.61328125 C8.63589844 10.20753906 8.97492188 10.80179688 9.32421875 11.4140625 C12.92961201 19.17313464 12.5581273 29.14075925 9.671875 37.05078125 C6.30712387 44.19061901 2.18758985 49.05497431 -5.27734375 51.953125 C-11.12428511 53.5443216 -16.47623994 53.47681384 -22.015625 50.92578125 C-29.21873919 46.78072962 -33.08840375 40.89229257 -35.953125 33.30078125 C-37.89136138 23.77111905 -36.61740549 15.921435 -31.953125 7.42578125 C-23.35318831 -3.32413961 -12.44280895 -6.85900183 0 0 Z M-17.390625 15.05078125 C-20.33303867 18.9041589 -21.01191291 22.82706868 -20.703125 27.61328125 C-19.41031525 31.10386756 -17.93125041 34.58075784 -14.703125 36.61328125 C-11.68812642 36.84778197 -11.68812642 36.84778197 -8.703125 35.61328125 C-5.5578518 32.30246735 -4.43955322 29.59004238 -4.265625 25.11328125 C-4.45889834 21.02002794 -5.42184691 18.07744427 -7.703125 14.61328125 C-11.85628825 11.84450575 -13.64245605 11.65127918 -17.390625 15.05078125 Z " fill="#000000" transform="translate(348.703125,160.38671875)"/>
<path d="M0 0 C6.69272949 3.8892042 11.4715638 10.15837223 13.75 17.5 C15.58707512 26.62362519 14.49944914 35.47217778 10.00390625 43.68359375 C6.03061365 49.43929798 0.50338299 52.89205167 -6.25 54.5 C-13.47014441 55.2735869 -19.34261067 53.24895702 -25 48.8125 C-30.11405123 44.14213358 -33.01060138 37.70452151 -33.5234375 30.83984375 C-33.85171918 20.84321071 -33.44531727 13.09334561 -26.3125 5.4140625 C-18.91198879 -1.45383616 -9.67447271 -4.26204841 0 0 Z M-16.296875 18.45703125 C-18.25531923 22.65484409 -17.96934389 27.0107613 -17.25 31.5 C-15.51698009 35.22278352 -14.49204442 36.89490144 -10.8125 38.6875 C-8.04665676 38.71013091 -8.04665676 38.71013091 -5.5625 36.5625 C-2.81664264 32.92609431 -1.58630172 30.03576163 -1.25 25.5 C-1.89927053 21.60437683 -2.71124976 19.22452619 -5.0625 16.0625 C-7.15727541 14.36751482 -7.15727541 14.36751482 -9.6875 13.875 C-12.76866438 14.62650351 -14.39515018 15.92340419 -16.296875 18.45703125 Z " fill="#000000" transform="translate(236.25,121.5)"/>
<path d="M0 0 C7.46664558 4.28189267 11.12230869 11.04152838 13.5 19.078125 C15.32096994 27.95964818 13.61374197 37.28219371 8.7265625 44.91015625 C4.90479769 49.82385386 -0.99682696 53.57244939 -7.21484375 54.37109375 C-14.19251449 54.6622967 -19.37320349 53.17254251 -25.0859375 49.09765625 C-27.56160431 46.65326102 -29.36971547 44.11662108 -31.0859375 41.09765625 C-31.42496094 40.50339844 -31.76398438 39.90914062 -32.11328125 39.296875 C-35.37583661 32.27561531 -35.20087381 23.56939006 -33.359375 16.18359375 C-30.26960297 7.86884138 -25.78273182 2.72785839 -17.703125 -0.98828125 C-11.67019301 -3.09530526 -5.83619421 -2.49956525 0 0 Z M-14.7734375 16.41015625 C-18.21087185 20.40501238 -18.43767728 23.73749096 -18.36328125 28.8046875 C-17.92187702 32.45404359 -16.58760256 34.4643246 -14.0859375 37.09765625 C-11.20751531 38.59146732 -11.20751531 38.59146732 -8.0859375 38.09765625 C-4.34129185 34.93551104 -2.84797669 32.43209841 -2.0859375 27.59765625 C-1.77557012 22.47659456 -3.43627964 19.2493839 -6.5234375 15.22265625 C-9.90062413 12.79108188 -11.92226641 13.95682299 -14.7734375 16.41015625 Z " fill="#000000" transform="translate(186.0859375,158.90234375)"/>
<path d="M0 0 C6.00981471 3.50469688 11.192289 9.28074029 13.3125 15.97265625 C14.93253306 25.33124008 15.09836635 35.3376239 9.75 43.5 C9.37617188 44.07105469 9.00234375 44.64210937 8.6171875 45.23046875 C5.23541907 49.76562177 0.99227672 52.28414623 -4.25 54.25 C-11.4098637 55.14498296 -16.99331499 54.07524858 -23.25 50.5 C-30.19721936 44.63057355 -32.96727079 37.89816933 -34.0625 29.0625 C-34.62765303 20.3567385 -32.74496467 13.35067774 -27.25 6.5 C-19.86163288 -1.12506538 -10.2429765 -4.51250037 0 0 Z M-16.234375 18.73046875 C-18.29531867 22.32126676 -18.68244846 25.59441412 -17.76953125 29.6171875 C-16.71467529 32.79923919 -15.64110856 35.06978059 -13.375 37.5625 C-11.2556464 38.65856144 -11.2556464 38.65856144 -8.75 38.5625 C-4.97875381 36.95972037 -3.99779067 35.1897803 -2.25 31.5 C-1.57195413 26.78381428 -1.62789706 22.85731551 -3.625 18.5 C-6.03285111 15.39234123 -6.03285111 15.39234123 -9.5625 14 C-12.88656035 14.61842983 -14.2475336 16.04571787 -16.234375 18.73046875 Z " fill="#000000" transform="translate(295.25,121.5)"/>
</svg>
