<?xml version="1.0" encoding="UTF-8"?>
<svg version="1.1" xmlns="http://www.w3.org/2000/svg" width="512" height="512">
<path d="M0 0 C6.25398338 5.04266458 11.89349546 10.64040157 17.56642151 16.3109436 C18.73516216 17.47204467 19.90429703 18.63274903 21.0737915 19.79309082 C24.22324816 22.9207769 27.36626984 26.05484931 30.50741124 29.19088411 C32.47678563 31.15659509 34.44744716 33.12100655 36.41853142 35.0850029 C43.31369282 41.95573341 50.20317126 48.83210951 57.08790588 55.71328735 C63.47560848 62.09735649 69.8763234 68.46817276 76.28310877 74.83308566 C81.80912698 80.32426742 87.32534218 85.82517294 92.83431715 91.33345258 C96.11330184 94.61164922 99.39602998 97.88585656 102.68893623 101.15007401 C105.78889381 104.22361986 108.87634591 107.30922541 111.95515633 110.40394974 C113.0774243 111.52801377 114.20385488 112.64794224 115.33504868 113.76302338 C124.86161191 123.16226642 133.69199993 133.60858719 137.55836487 146.67178345 C137.92961487 147.87963501 138.30086487 149.08748657 138.68336487 150.3319397 C143.24617274 167.42209953 141.52788911 185.57705248 134.12086487 201.48428345 C133.85209534 202.08426147 133.58332581 202.6842395 133.30641174 203.30239868 C130.93266729 208.04553323 127.69568305 211.99692791 124.25306702 215.9992218 C123.72555926 216.61263166 123.1980515 217.22604152 122.65455866 217.85803956 C116.60922515 224.80671226 110.14356532 231.31284258 103.62672424 237.81558228 C102.27458221 239.17208525 100.92285416 240.52900098 99.57150269 241.8862915 C95.94193599 245.52910469 92.30614167 249.16563786 88.66867256 252.80055833 C85.61772814 255.85042411 82.56978536 258.90328132 79.52176619 261.95607013 C72.32746896 269.16141089 65.1279215 276.36147531 57.92506409 283.55825806 C50.52157009 290.95570385 43.12732407 298.36230277 35.73749495 305.77339727 C29.36208597 312.16646941 22.98083401 318.5536685 16.59496355 324.93629092 C12.79413332 328.73531713 8.99550885 332.53648126 5.20257568 336.34339333 C1.63706591 339.92155546 -1.9357402 343.49227381 -5.51406288 347.057621 C-6.81781569 348.3590253 -8.11907225 349.66293648 -9.41748619 350.96966743 C-26.8340568 368.48964754 -45.36025169 381.82246188 -70.94163513 382.10928345 C-88.66249827 381.8930446 -105.14907518 376.19301332 -118.25804138 364.01553345 C-120.35570477 362.35902342 -120.35570477 362.35902342 -122.90647888 362.76553345 C-125.47137965 363.61918301 -127.9536517 364.55189049 -130.44163513 365.60928345 C-135.07968954 367.58045657 -138.91163475 368.63591054 -143.99405098 368.5474596 C-152.65190431 368.44299472 -157.72208958 369.31445406 -164.23748326 375.56807196 C-165.79800114 377.14430164 -167.31779694 378.7542444 -168.83958435 380.36782837 C-169.97514008 381.51418772 -171.11407523 382.6572077 -172.256073 383.79714966 C-175.32502919 386.87879976 -178.34589398 390.00391572 -181.36032629 393.1387918 C-184.53679408 396.42467456 -187.75816375 399.66591995 -190.97535706 402.91184998 C-197.05948167 409.06305718 -203.10605193 415.24975289 -209.1382848 421.45181495 C-219.93617328 432.55068042 -230.80339528 443.58159405 -241.67461979 454.60856706 C-245.48215499 458.47339764 -249.27535161 462.35161049 -253.05656123 466.24219644 C-255.41645638 468.66736203 -257.78453433 471.08442842 -260.15428352 473.49996185 C-261.24394649 474.61450504 -262.33000814 475.73258348 -263.41198921 476.85458565 C-275.13749255 489.00778053 -288.96260183 498.24123629 -306.30882263 498.9100647 C-324.69854819 499.12583844 -340.70700686 495.09556691 -354.26585388 481.91397095 C-367.87469203 467.49886411 -372.11669133 452.14807605 -371.75804138 432.7928772 C-371.47584537 426.2740313 -369.99198019 420.60512779 -367.44163513 414.60928345 C-367.11421326 413.75592407 -366.78679138 412.9025647 -366.44944763 412.02334595 C-361.5011226 400.57357198 -350.50864402 391.51459784 -341.70991325 382.96022987 C-340.13085622 381.42501561 -338.55563933 379.88594397 -336.98123169 378.34596252 C-335.27935668 376.68135187 -333.57727346 375.01696076 -331.87409472 373.35368395 C-327.66598153 369.2436273 -323.47038557 365.12108464 -319.28175354 360.99118042 C-318.6690891 360.38711168 -318.05642465 359.78304294 -317.42519462 359.16066909 C-314.90672308 356.67698473 -312.38870576 354.19284063 -309.87105155 351.70832777 C-302.76190377 344.69348352 -295.64099759 337.69162342 -288.48265076 330.72695923 C-282.76447924 325.1633459 -277.07361559 319.57337168 -271.41294205 313.95124745 C-268.42678164 310.98737835 -265.42898934 308.03808904 -262.3975029 305.1205368 C-259.54884785 302.3783432 -256.73807926 299.60222573 -253.95127296 296.79724312 C-252.92951269 295.78115698 -251.89503521 294.77765759 -250.84671974 293.78899193 C-244.78121647 288.05245153 -241.70807756 283.63667764 -241.44117737 275.3354187 C-241.4605794 274.03948917 -241.47998142 272.74355965 -241.49997139 271.40835953 C-241.39952896 264.8671716 -239.47726996 258.21335823 -236.25022888 252.49990845 C-235.28880688 250.65331988 -235.28880688 250.65331988 -235.58616638 248.67178345 C-236.7141408 245.95228348 -238.31688357 243.92896544 -240.12913513 241.60928345 C-252.22878623 225.22388831 -256.90005703 206.58523205 -254.14427185 186.43496704 C-251.90812875 173.52071395 -246.67657192 161.92554317 -238.06434631 152.06848145 C-237.54223245 151.46606058 -237.02011859 150.86363971 -236.4821831 150.24296367 C-230.43236095 143.3432002 -223.975358 136.86200301 -217.47825623 130.38711548 C-216.12285947 129.02900014 -214.76788666 127.67046159 -213.41329956 126.3115387 C-209.77551972 122.66473915 -206.13156102 119.0241759 -202.48607969 115.385077 C-198.65075217 111.55485986 -194.82035974 107.71971212 -190.989151 103.88537598 C-184.56251178 97.45511342 -178.13170167 91.02904485 -171.69847107 84.6053772 C-164.2806017 77.19840777 -156.86998916 69.78423647 -149.46306741 62.36632073 C-143.07575645 55.96991233 -136.68452963 49.57743624 -130.29005682 43.18818748 C-126.48276451 39.38399899 -122.67680261 35.57850585 -118.87438583 31.76944351 C-115.30177766 28.19102597 -111.72425098 24.61759741 -108.14299202 21.04783821 C-106.83605209 19.74352495 -105.53077785 18.43753999 -104.22737312 17.12969398 C-85.82217502 -1.33239299 -85.82217502 -1.33239299 -74.56663513 -6.70321655 C-73.87448914 -7.03515015 -73.18234314 -7.36708374 -72.46922302 -7.70907593 C-49.44813565 -18.4296934 -20.15150576 -15.78626297 0 0 Z M-87.45652771 30.99307251 C-88.93504215 32.4664413 -90.41462528 33.93873832 -91.89518738 35.41004944 C-95.89197504 39.38839849 -99.87296731 43.38220655 -103.85067201 47.37962437 C-108.02672316 51.57212388 -112.21543 55.75194744 -116.4022522 59.9336853 C-123.42901389 66.95593322 -130.44554241 73.98828085 -137.45603943 81.02676392 C-145.54794699 89.15072606 -153.65577327 97.25852894 -161.77233964 105.35784936 C-169.59791478 113.16753223 -177.41211103 120.98850628 -185.22121239 128.81465912 C-188.53676624 132.13706483 -191.856208 135.45551191 -195.17888832 138.7707901 C-199.09433139 142.67854275 -202.99967108 146.59612673 -206.89759827 150.52134895 C-208.32518292 151.9557893 -209.7561299 153.38689286 -211.19075584 154.814291 C-223.87588516 167.44288355 -233.36210349 179.35177587 -233.94163513 198.10928345 C-233.37410341 216.47839349 -224.15130662 228.50747949 -211.69163513 240.92446899 C-210.50085627 242.12559922 -209.31090198 243.32754739 -208.1217041 244.53024292 C-204.90971214 247.77310608 -201.68512517 251.00315025 -198.45703506 254.22998023 C-195.75275051 256.93509944 -193.05420878 259.64591392 -190.35543537 262.35652953 C-183.9819824 268.75729401 -177.59763583 275.14704955 -171.20677185 281.53042603 C-164.63828045 288.09168123 -158.0903762 294.67298605 -151.55200768 301.2642476 C-145.91592646 306.94425216 -140.2662503 312.610489 -134.60590553 318.26631385 C-131.235038 321.63487083 -127.86958215 325.00840484 -124.51756287 328.39572716 C-121.36148979 331.58399815 -118.18863919 334.75460757 -115.00275993 337.91308594 C-113.84471595 339.0667135 -112.69246153 340.22619101 -111.54693794 341.39225197 C-100.14661232 352.98280234 -87.84708484 360.42554126 -71.25413513 360.98428345 C-51.11501302 360.66397932 -38.98780611 349.75794871 -25.55613708 336.28897095 C-24.07915189 334.8223313 -22.60134601 333.35651774 -21.12278748 331.89146423 C-17.1278573 327.92746516 -13.14578549 323.9507892 -9.16692376 319.97066879 C-5.83550446 316.64008272 -2.49838985 313.31523077 0.8385337 309.99016094 C8.71596211 302.14006577 16.58236753 294.27904131 24.44239807 286.41152954 C32.53051578 278.3161737 40.63873858 270.24135886 48.75687188 262.17611313 C55.74469347 255.23216486 62.71881576 248.27465767 69.68247253 241.30647659 C73.83349013 237.15314448 77.98956976 233.00522679 82.15932274 228.87069702 C86.0829397 224.97919374 89.98909403 221.07094652 93.88292694 217.14964867 C95.30745666 215.72068929 96.7378755 214.29757053 98.17482185 212.88109779 C109.73530532 201.47412938 119.59256536 189.31389451 119.9389801 172.20327759 C119.8942775 154.04041518 112.97622378 141.54149196 100.25772095 128.76652527 C99.17682237 127.69340012 98.09571504 126.62048522 97.01441956 125.54776001 C95.8580101 124.38591755 94.70245047 123.22322871 93.54766846 122.05976868 C90.43480009 118.92880424 87.30958059 115.81045797 84.18129253 112.6949091 C80.89326171 109.41707749 77.61508314 106.12941494 74.33528137 102.84335327 C68.82810602 97.32892156 63.3125989 91.82292918 57.79225159 86.32168579 C51.43009237 79.98129129 45.08247036 73.62661649 38.74220538 67.26433396 C33.27671319 61.78063034 27.80339016 56.30483443 22.32356763 50.83545089 C19.06014883 47.5782355 15.79941464 44.31845585 12.54575348 41.05149078 C9.48494804 37.97904356 6.41435571 34.91671118 3.33626747 31.8615818 C2.21508164 30.74563885 1.09719952 29.62636408 -0.01690865 28.50335503 C-12.23001794 16.20177727 -24.68974747 7.3060164 -42.56663513 7.17178345 C-62.19921931 7.46151095 -74.21824192 17.63658356 -87.45652771 30.99307251 Z M-218.44163513 264.60928345 C-221.69298646 271.74925097 -221.52578722 279.50999633 -218.87913513 286.85928345 C-215.34999188 295.7056692 -206.44994477 302.78250876 -199.88694763 309.4022522 C-198.98596344 310.31130814 -198.08497925 311.22036407 -197.1566925 312.15696716 C-195.26104206 314.06751379 -193.36290387 315.97555492 -191.46360779 317.88247681 C-189.04915256 320.30802806 -186.64662331 322.74504973 -184.24649239 325.18476391 C-181.92705568 327.53681847 -179.59350028 329.87470865 -177.26194763 332.2147522 C-175.98651596 333.516446 -175.98651596 333.516446 -174.68531799 334.84443665 C-166.89405608 342.60781949 -159.71905367 347.72607148 -148.50413513 347.79678345 C-146.97466248 347.81805298 -146.97466248 347.81805298 -145.41429138 347.8397522 C-142.37003846 347.60373259 -140.1942587 346.8918134 -137.44163513 345.60928345 C-141.71572912 340.50543473 -146.18692716 335.72033261 -150.89988708 331.02163696 C-151.62092117 330.29885056 -152.34195526 329.57606415 -153.08483887 328.83137512 C-155.44737072 326.46447345 -157.8135036 324.10121075 -160.17991638 321.7381897 C-161.82818985 320.08924223 -163.47631489 318.44014637 -165.1242981 316.79090881 C-168.56642645 313.34731048 -172.01034665 309.90551701 -175.45555115 306.46499634 C-179.88222033 302.04405099 -184.30434918 297.61859547 -188.72517109 293.19180393 C-192.12126665 289.79210679 -195.51972549 286.39478017 -198.91892052 282.9981823 C-200.55162757 281.36614424 -202.18358685 279.73335775 -203.81479836 278.09982491 C-206.08424829 275.82785217 -208.35684976 273.55908105 -210.63035583 271.29116821 C-211.30928894 270.61021088 -211.98822205 269.92925354 -212.68772888 269.22766113 C-215.18394672 266.11436283 -215.18394672 266.11436283 -218.44163513 264.60928345 Z M-233.44163513 304.60928345 C-247.56209087 318.63613597 -261.67095625 332.67454709 -275.76626778 346.7266674 C-282.31180706 353.25161574 -288.86102952 359.77278398 -295.41917419 366.2850647 C-301.13784146 371.96375797 -306.84934971 377.64954003 -312.55251205 383.34380639 C-315.5701894 386.35628688 -318.5912389 389.36519437 -321.6208992 392.36562729 C-324.47779673 395.19518872 -327.32496135 398.03420122 -330.1652317 400.8804493 C-331.20413728 401.91826273 -332.24642424 402.95270513 -333.29248238 403.98330879 C-343.56822618 414.11475033 -350.66937855 423.45691734 -350.81663513 438.35928345 C-350.75525943 449.67461237 -347.31558993 458.36112089 -339.44163513 466.60928345 C-330.70287294 474.95158005 -321.37911493 478.2492151 -309.36106873 478.07998657 C-293.20187852 477.35580832 -283.4894814 466.96721657 -272.68943787 456.08413696 C-271.6442189 455.03835257 -270.59855681 453.9930109 -269.55249023 452.94807434 C-266.73870163 450.13485514 -263.93108458 447.31555119 -261.12460589 444.49504209 C-258.18141269 441.53927213 -255.23248318 438.58923607 -252.28417969 435.63856506 C-246.7130606 430.06125149 -241.14705563 424.47886343 -235.58290869 418.89459509 C-229.24339298 412.53265685 -222.89813794 406.17645598 -216.55241477 399.8207103 C-203.50913046 386.75657006 -190.47300464 373.68530811 -177.44163513 360.60928345 C-178.16503082 359.88588776 -178.88842651 359.16249207 -179.63374329 358.41717529 C-197.56970723 340.48121134 -215.50567118 322.5452474 -233.44163513 304.60928345 Z " fill="#000000" transform="translate(371.44163513183594,13.390716552734375)"/>
<path d="M0 0 C6.76566436 4.86857016 12.70966848 10.18538549 18.57721329 16.09408379 C19.53236897 17.04516079 20.48815866 17.99560142 21.44452286 18.94546318 C24.00909271 21.49650943 26.56426596 24.05676811 29.11728764 26.61936522 C31.80804077 29.31779121 34.50619451 32.00880236 37.20312881 34.7010479 C41.72710565 39.21959008 46.24477364 43.74436723 50.75885391 48.27279472 C55.95709237 53.48736512 61.16606229 58.69102782 66.38071656 63.88917816 C70.8816886 68.37648151 75.37671994 72.8696729 79.86694884 77.36772645 C82.53833318 80.04375657 85.21162838 82.71779333 87.89033127 85.3864994 C90.40893477 87.89635627 92.91993391 90.41359293 95.42555618 92.93640709 C96.77057324 94.2872005 98.1228681 95.63073539 99.47546768 96.97393608 C109.865054 107.47092681 117.72780381 118.04341211 117.94342422 133.28597832 C117.67628733 152.18813959 106.39790245 162.69400101 93.84552383 175.28451347 C92.57621193 176.56473995 91.30728119 177.84534444 90.0387001 179.12629509 C86.61159297 182.58372184 83.17792137 186.03455093 79.74199748 189.4832139 C77.59007936 191.64325089 75.43919712 193.80431454 73.28857994 195.96564674 C66.54342045 202.74346857 59.79390229 209.51690886 53.03850931 216.28453124 C45.26935571 224.06793798 37.51524911 231.86593784 29.77372164 239.6768204 C23.76798179 245.73448278 17.74872492 251.77849955 11.71928793 257.81257474 C8.12769136 261.40755458 4.54194757 265.00792652 0.97035408 268.62278938 C-2.39189583 272.02506175 -5.77076072 275.40994197 -9.16253281 278.78277588 C-10.39640709 280.015394 -11.62443936 281.25389596 -12.84572792 282.49898529 C-23.3154757 293.16083599 -34.14787928 301.37051929 -49.74407578 301.59847832 C-65.75115373 301.41821843 -76.2897646 293.22481434 -87.21941757 282.25082207 C-88.24321349 281.23738292 -89.26782479 280.22476694 -90.29317856 279.21290398 C-93.05256301 276.48433511 -95.7991649 273.74324738 -98.54254889 270.99860191 C-100.84504735 268.69693943 -103.15324109 266.40102782 -105.46122867 264.10487175 C-110.91270691 258.68068484 -116.35318926 253.24563748 -121.78728867 247.80404472 C-127.36699564 242.21710334 -132.96670051 236.65079215 -138.57640523 231.09398556 C-143.41567828 226.29868247 -148.2411199 221.48975084 -153.05619937 216.67015553 C-155.92175127 213.80229674 -158.79220084 210.93984698 -161.6765461 208.09087944 C-164.39211472 205.40758762 -167.08983656 202.70748647 -169.77560425 199.99437714 C-171.21653682 198.54696554 -172.67454337 197.11661189 -174.13328171 195.68714714 C-183.3848241 186.2734207 -189.60989257 175.61738772 -189.80657578 162.16097832 C-189.60901256 144.61736492 -179.59624743 133.7878044 -167.80926132 122.08358574 C-166.51182332 120.78071867 -165.21523583 119.47700415 -163.91942978 118.17251396 C-160.41824652 114.65318981 -156.90464294 111.14652271 -153.38802695 107.64262748 C-149.69867876 103.96345273 -146.01915246 100.27447548 -142.33802414 96.58708 C-136.1573873 90.39918031 -129.96839722 84.21972962 -123.77459335 78.04501152 C-116.62568306 70.91787682 -109.49130927 63.77643408 -102.36429566 56.62740821 C-96.23048136 50.47541264 -90.0888697 44.33128301 -83.94073325 38.19360048 C-80.2749403 34.53402617 -76.61186203 30.87184441 -72.95581245 27.20253372 C-69.51827479 23.75339823 -66.07101622 20.31427693 -62.61617661 16.8824749 C-61.35384739 15.62541132 -60.09486618 14.36497484 -58.83960533 13.10085297 C-46.70576291 0.88931149 -46.70576291 0.88931149 -38.55657578 -2.65152168 C-37.85114985 -2.97419927 -37.14572393 -3.29687685 -36.41892147 -3.62933254 C-24.97125295 -8.59349389 -10.24748745 -6.6197716 0 0 Z M-47.33489609 31.6092205 C-48.60953275 32.8784315 -49.88501757 34.14679118 -51.16128159 35.41436577 C-54.61249912 38.84740019 -58.05100636 42.29290423 -61.48678303 45.74138355 C-65.09037365 49.35512773 -68.7037439 52.9590722 -72.31554794 56.56460381 C-78.37836486 62.6201512 -84.43271686 68.68406588 -90.48235703 74.75277519 C-97.46860163 81.76078705 -104.46913922 88.75427278 -111.47727513 95.74038768 C-117.50267294 101.74761179 -123.52021336 107.76262326 -129.53130031 113.78416753 C-133.11765251 117.37674377 -136.70662382 120.96659145 -140.30270767 124.54942894 C-143.68368459 127.91881945 -147.05466597 131.297906 -150.41830444 134.68460274 C-151.65159472 135.92316512 -152.88827022 137.15836764 -154.12861633 138.38986397 C-163.82550803 147.68713236 -163.82550803 147.68713236 -169.08782578 159.81722832 C-169.07751328 160.48754082 -169.06720078 161.15785332 -169.05657578 161.84847832 C-169.06688828 162.51879082 -169.07720078 163.18910332 -169.08782578 163.87972832 C-167.171035 172.78716778 -161.10762407 178.36953487 -154.86614609 184.55648613 C-153.87279467 185.55526636 -152.8802943 186.55489362 -151.88857651 187.55529594 C-149.20755443 190.25446393 -146.51414183 192.94093261 -143.81768513 195.62467098 C-140.98869243 198.44349061 -138.16952425 201.27210945 -135.34875107 204.0991497 C-130.61139224 208.84377243 -125.86569283 213.57992968 -121.11516953 218.31136894 C-115.63403114 223.77074109 -110.16745113 229.24437336 -104.70820928 234.72563481 C-100.00883525 239.44319871 -95.30166347 244.15287541 -90.58796382 248.85612559 C-87.77786554 251.66000865 -84.97048992 254.46647448 -82.17013931 257.28009605 C-79.53616058 259.92568493 -76.89248213 262.56119198 -74.24121094 265.1894474 C-72.81436598 266.60853683 -71.39727239 268.03741019 -69.98055649 269.46661186 C-64.60261383 274.77430299 -59.68377379 279.24515723 -52.08782578 280.87972832 C-51.41751328 280.86941582 -50.74720078 280.85910332 -50.05657578 280.84847832 C-49.38626328 280.85879082 -48.71595078 280.86910332 -48.02532578 280.87972832 C-38.03859676 278.73068536 -31.67273975 271.0317656 -24.77825546 264.08773613 C-23.5036188 262.81852514 -22.22813398 261.55016545 -20.95186996 260.28259087 C-17.50065243 256.84955644 -14.06214519 253.40405241 -10.62636852 249.95557308 C-7.0227779 246.3418289 -3.40940765 242.73788443 0.20239639 239.13235283 C6.26521331 233.07680543 12.31956531 227.01289075 18.36920547 220.94418144 C25.35545008 213.93616959 32.35598767 206.94268385 39.36412358 199.95656896 C45.38952139 193.94934485 51.40706181 187.93433337 57.41814876 181.91278911 C61.00450096 178.32021287 64.59347227 174.73036518 68.18955612 171.14752769 C71.57053304 167.77813718 74.94151442 164.39905064 78.30515289 161.0123539 C79.53844317 159.77379151 80.77511867 158.53858899 82.01546478 157.30709267 C91.7779919 147.92232305 91.7779919 147.92232305 97.00983047 135.66097832 C97.00854141 134.89785332 97.00725235 134.13472832 97.00592422 133.34847832 C97.03879532 132.20379082 97.03879532 132.20379082 97.07233047 131.03597832 C95.04813663 122.38600711 87.66613268 116.14328826 81.60773087 110.12460136 C80.61119484 109.12399296 79.61529655 108.12274908 78.61998367 107.120924 C75.93270732 104.42005103 73.23612502 101.72865766 70.53727651 99.03935409 C67.70618779 96.21589759 64.88246762 93.38508672 62.05754471 90.55546379 C57.31598106 85.80845473 52.56815511 81.06777821 47.81671524 76.33065605 C42.33003402 70.86031781 36.85426889 65.37923081 31.38401133 59.89247292 C26.67685477 55.17168935 21.96386091 50.45679337 17.24596494 45.74674255 C14.43251486 42.93795986 11.62110815 40.12721242 8.81496239 37.31113052 C6.17790871 34.66539111 3.53358615 32.02713595 0.88355064 29.39440155 C-0.54679503 27.96989308 -1.96979491 26.53802053 -3.39254379 25.10592461 C-4.68144264 23.82971497 -4.68144264 23.82971497 -5.99637985 22.52772331 C-6.73653808 21.78869617 -7.4766963 21.04966902 -8.23928356 20.28824711 C-12.22877046 16.9487105 -16.19457298 14.91956357 -21.43157578 14.91097832 C-22.21274765 14.89164238 -22.99391953 14.87230644 -23.79876328 14.85238457 C-33.94492436 16.67754386 -40.41138963 24.6359603 -47.33489609 31.6092205 Z " fill="#000000" transform="translate(350.5565757751465,49.65152168273926)"/>
<path d="M0 0 C5.53846154 3.07692308 5.53846154 3.07692308 7 6 C7.42071592 9.05920574 7.48514117 11.9467746 7 15 C4.81840855 17.75569447 3.12822506 19.43588747 0 21 C-4.4188083 21.5098625 -6.50771901 21.29172207 -10.375 19 C-13.21444996 15.75491433 -13.95091395 14.11614982 -14.171875 9.92578125 C-13.82565506 6.04654417 -11.85773037 3.8883636 -9.25 1.1875 C-5.95322558 -0.55246428 -3.67943611 -0.44406988 0 0 Z " fill="#000000" transform="translate(332,201)"/>
<path d="M0 0 C2.87029869 1.79393668 4.49131638 2.98263276 6 6 C6.4973766 10.973766 6.54511419 13.06308498 4 17.4375 C0.7603647 20.20468848 -0.92451101 20.95696666 -5.07421875 21.16796875 C-8.08440289 20.90541719 -9.72221419 19.95238784 -12 18 C-14.16232881 15.24116669 -14.93942763 13.48457897 -15.375 10 C-14.94697195 6.57577558 -14.06082066 4.74776087 -12 2 C-7.98141405 -0.6790573 -4.72358279 -0.69610694 0 0 Z " fill="#000000" transform="translate(418,173)"/>
<path d="M0 0 C2.7568355 1.69651415 3.69705733 2.95851082 4.59765625 6.0546875 C5.35410271 10.41710687 5.27132459 12.47606287 3.1875 16.5 C1.01287319 18.98528778 0.20795071 19.83387711 -2.98828125 20.2734375 C-7.48027315 20.46972622 -9.34969305 20.51482633 -13 17.625 C-16.12026386 13.52965369 -16.51886942 11.18869417 -16 6 C-12.12570726 -0.73139665 -7.28938778 -1.83704329 0 0 Z " fill="#000000" transform="translate(306,230)"/>
<path d="M0 0 C2.69207751 1.68254844 3.65216939 2.83732147 4.55859375 5.8671875 C5.20356259 9.39124404 5.22407414 11.46929809 3.8125 14.8125 C0.86022662 18.37558856 -0.6686682 19.82741995 -5.375 20.4375 C-9.61294831 19.92602348 -11.70904291 18.66410812 -15 16 C-16.73631636 12.52736727 -16.60190402 8.78806987 -16 5 C-11.10092142 -1.18830979 -7.36816163 -1.65193659 0 0 Z " fill="#000000" transform="translate(278,202)"/>
<path d="M0 0 C2.75569447 2.18159145 4.43588747 3.87177494 6 7 C6.04079849 11.22672392 5.69610539 14.88623137 3.4375 18.5 C0.03467504 20.59404613 -3.01496882 21.20639604 -7 21 C-10.66811631 19.45123978 -13.13280222 17.53784843 -15 14 C-15.56920689 9.6089754 -15.29015343 7.52227617 -13.125 3.625 C-9.52751757 -0.81894888 -5.45749972 -0.86716749 0 0 Z " fill="#000000" transform="translate(305,173)"/>
<path d="M0 0 C3.5386994 1.65139305 4.81070153 2.71605229 7 6 C7.54531842 9.06526351 7.54325893 11.93408329 7 15 C4.81840855 17.75569447 3.12822506 19.43588747 0 21 C-4.22672392 21.04079849 -7.88623137 20.69610539 -11.5 18.4375 C-13.59404613 15.03467504 -14.20639604 11.98503118 -14 8 C-11.14641315 1.24150483 -7.2032171 -0.75823338 0 0 Z " fill="#000000" transform="translate(332,88)"/>
<path d="M0 0 C3.51152485 2.80921988 4.04921307 4.68321511 4.625 9.125 C4.05235997 13.86973172 2.76941991 15.61582008 -0.8125 18.75 C-4.77675016 20.18064673 -7.74550423 20.20050933 -11.625 18.5625 C-15.22410223 15.58038672 -16.66664577 14.08699707 -17.1875 9.3125 C-16.78882857 5.52512139 -16.1747451 3.70280637 -13.8125 0.75 C-9.65194818 -2.37041386 -4.59375224 -2.04166766 0 0 Z " fill="#000000" transform="translate(306.8125,287.25)"/>
<path d="M0 0 C3.20613573 1.89993229 5.39902918 3.33474007 6.69921875 6.9375 C7.31497271 10.43339345 7.20710911 12.50947841 5.8125 15.8125 C2.83038672 19.41160223 1.33699707 20.85414577 -3.4375 21.375 C-7.22487861 20.97632857 -9.04719363 20.3622451 -12 18 C-14.56632517 14.57823311 -14.36435051 11.15359579 -14 7 C-12.74544028 4.17724064 -11.71615278 2.53711459 -9.25 0.6875 C-5.9260257 -0.32815881 -3.46313738 -0.41796486 0 0 Z " fill="#000000" transform="translate(389,201)"/>
<path d="M0 0 C2.82275936 1.25455972 4.46288541 2.28384722 6.3125 4.75 C7.63189267 9.06801237 7.58520303 12.68329318 5.75 16.8125 C2.94078012 20.32402485 1.06678489 20.86171307 -3.375 21.4375 C-8.11973172 20.86485997 -9.86582008 19.58191991 -13 16 C-14.43064673 12.03574984 -14.45050933 9.06699577 -12.8125 5.1875 C-8.85218865 0.40781389 -6.33719383 -0.66707303 0 0 Z " fill="#000000" transform="translate(219,201)"/>
<path d="M0 0 C3.5420773 3.09931764 4.84372778 4.88656044 5.5 9.5625 C4.86922578 13.89907279 3.80650145 16.64512391 0.25 19.3125 C-4.06801237 20.63189267 -7.68329318 20.58520303 -11.8125 18.75 C-15.32402485 15.94078012 -15.86171307 14.06678489 -16.4375 9.625 C-15.85406422 4.79081782 -14.44960332 3.36937999 -11 0 C-7.1313778 -1.28954073 -3.85347057 -1.20702094 0 0 Z " fill="#000000" transform="translate(306,117)"/>
<path d="M0 0 C3.18637361 0.64073817 4.95955678 2.09960721 7.15625 4.43359375 C8.77501208 7.6711179 8.72757566 10.93422409 8.15625 14.43359375 C6.36689094 18.03545013 4.09595239 20.08631243 0.28125 21.49609375 C-3.78610089 21.41474673 -6.30954601 20.43408657 -9.84375 18.43359375 C-12.71809293 15.28978117 -12.84375 13.73117936 -12.84375 9.43359375 C-12.29141217 6.39573571 -11.62896863 5.11142169 -9.84375 2.43359375 C-6.2938633 0.06700262 -4.18574986 -0.23021624 0 0 Z " fill="#000000" transform="translate(330.84375,257.56640625)"/>
<path d="M0 0 C2.8100346 1.79363911 4.50940468 3.01880935 6 6 C6.64797087 10.71167386 6.68157643 13.97763536 4 18 C0.28706298 20.47529135 -2.54190492 21.41876431 -7 21 C-10.34739145 19.5742592 -12.30145228 18.48364118 -13.8828125 15.125 C-14.85094249 11.88973018 -15.11791083 9.57645296 -14.4375 6.25 C-10.79914288 0.55518015 -6.5467784 -1.34903312 0 0 Z " fill="#000000" transform="translate(248,173)"/>
<path d="M0 0 C2.66173541 3.00298354 3.84055664 5.04333984 4.5 9 C3.86619108 12.80285351 2.37421663 14.99731426 0 18 C-3.45739557 19.72869779 -7.21975568 19.48966895 -11 19 C-13.87029869 17.20606332 -15.49131638 16.01736724 -17 13 C-17.57268722 6.01321586 -17.57268722 6.01321586 -15.375 2.125 C-10.34757448 -2.37322283 -6.13075975 -2.72478211 0 0 Z " fill="#000000" transform="translate(392,146)"/>
<path d="M0 0 C2.46810594 2.1516821 3.74159986 3.68402403 4.37890625 6.9296875 C4.60432912 10.78369142 4.24527155 12.61574124 2.125 15.9375 C-0.73222306 18.71068709 -2.42300746 19.20503898 -6.3125 19.375 C-9.89944824 19.31723916 -10.88749122 19.07500585 -14 17 C-16.46883806 13.29674291 -17.4354365 10.45016105 -17 6 C-15.22700797 2.17033721 -13.91109287 0.4859162 -10.1875 -1.5 C-6.12765138 -2.136839 -3.77517685 -1.60794569 0 0 Z " fill="#000000" transform="translate(335,146)"/>
<path d="M0 0 C4.03539675 1.94009459 5.6423493 3.24178051 7.5625 7.3125 C8.10311507 11.86911275 7.27743845 14.05244001 5 18 C2.43220668 20.94820714 1.02556816 20.99715909 -2.9375 21.4375 C-7.02528187 21.29259728 -9.12399716 19.96315444 -12 17 C-13.73631636 13.52736727 -13.60190402 9.78806987 -13 6 C-9.08606917 1.05608737 -6.27104539 -0.60298513 0 0 Z " fill="#000000" transform="translate(360,116)"/>
<path d="M0 0 C3.67080764 2.52368025 4.75864984 4.17035883 6 8.4375 C6 12.64943093 5.47814609 14.59254913 3 18 C-0.96129054 20.43771726 -3.05940621 21.12753814 -7.6875 20.5 C-11.49963533 18.77375004 -13.00243339 17.67552256 -15 14 C-15.86071831 9.61654798 -15.5439996 6.85226605 -13.125 3.0625 C-9.22556807 -0.72224276 -5.23389564 -0.78644028 0 0 Z " fill="#000000" transform="translate(277,258)"/>
<path d="M0 0 C3.24962741 2.4725426 4.71720978 4.09507129 5.9375 8 C6.03395399 12.62979174 4.99631034 14.91577993 1.875 18.3125 C-1.86524737 20.50786259 -4.75814428 20.87407936 -9 20 C-11.8100346 18.20636089 -13.50940468 16.98119065 -15 14 C-15.42074378 10.94059163 -15.47999423 8.0540292 -15 5 C-10.58053726 -0.73335706 -6.94670018 -1.6767897 0 0 Z " fill="#000000" transform="translate(362,230)"/>
<path d="M0 0 C3.02182284 2.05741129 4.69011377 3.49949825 5.4453125 7.15625 C5.65056702 11.26134032 5.33688603 13.46098235 3.125 17 C-0.10090806 20.03614876 -2.44456065 20.40859474 -6.89453125 20.34375 C-10.78521443 19.70853642 -12.39157143 17.92652961 -15 15 C-16.42831404 11.13515023 -16.08173878 9.28368165 -14.9375 5.3125 C-11.31590664 -0.87925639 -6.74009887 -1.96075604 0 0 Z " fill="#000000" transform="translate(249,230)"/>
<path d="M0 0 C3.60185638 1.78935906 5.65271868 4.06029761 7.0625 7.875 C6.98041379 11.97931067 6.07239574 14.4568718 4 18 C0.59254913 20.47814609 -1.35056907 21 -5.5625 21 C-9.82964117 19.75864984 -11.47631975 18.67080764 -14 15 C-14.96393453 10.33252754 -14.65953759 7.05526014 -12.125 3 C-8.46981433 -0.44017475 -4.87233139 -0.79548268 0 0 Z " fill="#000000" transform="translate(361,173)"/>
<path d="M0 0 C1.55802628 3.20260958 2.00212198 5.74903737 2.125 9.3125 C0.60983372 13.32769063 -0.2805253 14.91618353 -3.875 17.3125 C-8.46771203 18.05215025 -11.89962089 17.92211194 -15.875 15.4375 C-18.91194259 12.2107485 -19.27939489 9.86789926 -19.22265625 5.41796875 C-18.58761602 1.57205094 -16.73189274 -0.08455328 -13.875 -2.6875 C-9.10186597 -4.69724064 -3.82641138 -3.44377024 0 0 Z " fill="#000000" transform="translate(280.875,147.6875)"/>
</svg>
