<?xml version="1.0" encoding="UTF-8"?>
<svg version="1.1" xmlns="http://www.w3.org/2000/svg" width="512" height="512">
<path d="M0 0 C8.1871389 2.26530682 15.2695453 12.69789035 20.72195721 18.90203094 C28.73641825 27.90362384 36.89580232 36.75149522 45.15740204 45.52545166 C50.12429612 50.80970361 55.02136022 56.13549303 59.78836346 61.60124969 C65.35062109 67.9618442 71.05247247 74.16264005 77.00003338 80.16570282 C77.72358383 80.89613297 77.72358383 80.89613297 78.46175146 81.64131927 C93.73172531 96.86377854 107.95652276 102.83249602 129.31037802 102.82500029 C137.81195131 102.70585445 146.32931026 102.18504719 154.76982212 101.16411591 C156.37073295 100.98127045 156.37073295 100.98127045 158.0039854 100.79473114 C158.93341804 100.66939247 159.86285067 100.5440538 160.82044792 100.41491699 C163.29300213 100.63445282 163.29300213 100.63445282 165.59622192 102.40568542 C168.02217224 105.59223778 167.78115618 107.7292204 167.29300213 111.63445282 C165.53285082 114.81948852 164.79409297 115.46742254 161.29300213 116.63445282 C159.07359941 116.72768236 156.85141816 116.7581903 154.63005829 116.75750065 C153.6042441 116.75923141 153.6042441 116.75923141 152.55770639 116.76099715 C150.24938021 116.76365939 147.94112277 116.75914485 145.6328001 116.75470734 C143.96791622 116.75514312 142.30303241 116.75601815 140.63814896 116.7572965 C136.05008406 116.7595401 131.46204235 116.75552201 126.8739804 116.75051844 C121.93124667 116.7462122 116.98851431 116.74766049 112.04577923 116.74842072 C103.47780133 116.74894584 94.90983103 116.74580024 86.34185505 116.74018288 C73.95389939 116.73206632 61.56594742 116.7294525 49.17798939 116.72819488 C29.08082684 116.72600461 8.98366834 116.71934519 -11.11349201 116.70989227 C-30.63953348 116.70071752 -50.16557383 116.69364846 -69.69161701 116.68938446 C-70.90686674 116.68911646 -72.12211646 116.68884847 -73.37419194 116.68857235 C-82.87781316 116.686493 -92.38143441 116.68453605 -101.88505566 116.68261778 C-148.49237345 116.67317892 -195.0996811 116.65306184 -241.70699787 116.63445282 C-241.70699787 232.79445282 -241.70699787 348.95445282 -241.70699787 468.63445282 C-83.30699787 468.63445282 75.09300213 468.63445282 238.29300213 468.63445282 C238.29300213 352.47445282 238.29300213 236.31445282 238.29300213 116.63445282 C219.81300213 116.63445282 201.33300213 116.63445282 182.29300213 116.63445282 C177.29300213 112.63445282 177.29300213 112.63445282 176.29300213 110.25945282 C176.29300213 106.72705281 177.46368665 104.61555953 179.29300213 101.63445282 C182.14831658 100.2067956 184.59861091 100.48343528 187.79056072 100.45745087 C188.45742397 100.45087967 189.12428722 100.44430847 189.81135845 100.43753815 C192.02138662 100.41780391 194.23134687 100.40614306 196.44143963 100.39617157 C197.19585968 100.39209604 197.95027973 100.38802052 198.727561 100.38382149 C202.71974953 100.36296131 206.71190369 100.34865878 210.70413494 100.3392868 C214.82921707 100.32821562 218.95376076 100.29380809 223.07865238 100.2541151 C226.24938244 100.22798286 229.41998345 100.21959809 232.59081173 100.21600533 C234.11147611 100.21113139 235.63213442 100.19949437 237.15269375 100.18096733 C239.28111626 100.15664366 241.40813582 100.15752727 243.53665447 100.16448212 C244.7475172 100.15861588 245.95837994 100.15274963 247.20593548 100.14670563 C251.01443054 100.74843633 251.95096336 101.62000757 254.29300213 104.63445282 C254.79554945 107.53756714 254.79554945 107.53756714 254.79916 110.98760223 C254.81020769 112.30285637 254.82125538 113.6181105 254.83263785 114.97322083 C254.82468019 116.43647207 254.81634249 117.89972129 254.80766582 119.36296844 C254.81298883 120.91450156 254.82005309 122.46602953 254.82871288 124.01754761 C254.84739983 128.28788972 254.84101457 132.55788646 254.83055985 136.82824326 C254.82358497 141.43091385 254.83955267 146.03351225 254.85255718 150.6361618 C254.87423082 159.65544503 254.87406175 168.67460225 254.86593164 177.69390297 C254.85963925 185.02216182 254.86076166 192.35038383 254.86720371 199.67864227 C254.86810537 200.72048125 254.86900702 201.76232022 254.869936 202.83573008 C254.87178714 204.95201303 254.8736497 207.06829597 254.87552356 209.1845789 C254.8921136 229.04256754 254.88337242 248.90048519 254.86653798 268.75846958 C254.85183825 286.93944758 254.86647116 305.12026036 254.89530814 323.30121708 C254.92467647 341.9556258 254.93568203 360.6099582 254.92612594 379.26438904 C254.92510336 381.3730138 254.92410875 383.48163858 254.92314243 385.59026337 C254.92266604 386.62782603 254.92218965 387.66538869 254.92169883 388.73439264 C254.9195314 396.0563333 254.92935618 403.37820197 254.94391346 410.70012665 C254.96139911 419.61960469 254.9613737 428.53887198 254.9385618 437.4583416 C254.92738551 442.01179323 254.92433332 446.56487304 254.94286251 451.11830902 C254.95959334 455.28329189 254.95341786 459.44757653 254.92864572 463.61251354 C254.92373754 465.12254625 254.92734544 466.6326345 254.94013316 468.14262104 C254.95621688 470.18879694 254.93873955 472.23515555 254.91941452 474.28130341 C254.91914483 475.41981499 254.91887514 476.55832657 254.91859728 477.7313385 C254.29300213 480.63445282 254.29300213 480.63445282 252.28142589 483.00006437 C248.43238682 485.10512895 245.12761293 485.18845041 240.8518095 485.13781738 C239.99997467 485.14363115 239.14813984 485.14944491 238.27049184 485.15543485 C235.40254774 485.17008786 232.53545238 485.15612488 229.66751385 485.14238739 C227.59610778 485.1469942 225.52470499 485.15334563 223.45330906 485.16129637 C217.75058033 485.17804291 212.04811828 485.16971908 206.34538841 485.15735149 C200.19942864 485.14832511 194.05351568 485.16225873 187.90756512 485.17327118 C176.56002076 485.19005641 165.21258549 485.18856446 153.86504382 485.17762531 C143.38266709 485.16756959 132.90032165 485.16493323 122.41794109 485.16971588 C121.72306433 485.17002142 121.02818757 485.17032696 120.31225394 485.17064176 C117.49163915 485.17188708 114.67102437 485.17316068 111.85040962 485.17448082 C85.38199168 485.18672135 58.91362809 485.1756158 32.44521853 485.15409323 C8.92114332 485.13511029 -14.60284529 485.13680878 -38.12691975 485.15593719 C-64.54641455 485.1773481 -90.96586131 485.18585331 -117.38536358 485.17348814 C-120.20088799 485.17220524 -123.01641241 485.17095388 -125.83193684 485.16971588 C-126.52520876 485.16939957 -127.21848069 485.16908326 -127.93276085 485.16875737 C-138.4094606 485.16420432 -148.88612567 485.16953444 -159.36282063 485.17963409 C-171.27334657 485.19105861 -183.1837702 485.18785265 -195.09429216 485.16651112 C-201.17485551 485.15597606 -207.25524278 485.15192073 -213.33580494 485.16510773 C-218.89712839 485.17698651 -224.45811178 485.17054368 -230.01940417 485.14919752 C-232.03615059 485.14471227 -234.05292548 485.1470405 -236.06965375 485.15670067 C-238.802118 485.16878987 -241.53340349 485.15646599 -244.26580524 485.13781738 C-245.05662235 485.14718205 -245.84743946 485.15654671 -246.66222072 485.16619515 C-250.21900672 485.1173721 -252.55676184 484.71661789 -255.69542164 483.00006437 C-258.30681918 479.92906358 -258.33246145 478.28679449 -258.33341026 474.28130341 C-258.35204332 472.3084222 -258.35204332 472.3084222 -258.3710528 470.29568481 C-258.35955108 468.83243197 -258.34757884 467.36918277 -258.33518696 465.90593719 C-258.34023004 464.35440245 -258.34745703 462.80287353 -258.3566851 461.25135803 C-258.37566855 456.98093138 -258.36333966 452.71107494 -258.34596217 448.44066238 C-258.3326235 443.83799166 -258.34801263 439.23540633 -258.35978413 434.63274384 C-258.37819132 425.61342248 -258.3696279 416.59431735 -258.3516959 407.57500267 C-258.33768684 400.24674067 -258.33377345 392.91853748 -258.33713818 385.59026337 C-258.33761562 384.54842439 -258.33809306 383.50658542 -258.33858497 382.43317556 C-258.33961127 380.31689261 -258.34066663 378.20060967 -258.34175073 376.08432674 C-258.35032403 357.35880459 -258.33362239 338.63338703 -258.3039217 319.90789032 C-258.27508279 301.72555396 -258.26799995 283.54336828 -258.28341389 265.36101532 C-258.30016386 245.5754925 -258.30422255 225.79004127 -258.28670353 206.0045166 C-258.28485908 203.89589183 -258.28302436 201.78726706 -258.28119946 199.67864227 C-258.28028737 198.64107961 -258.27937528 197.60351695 -258.27843555 196.534513 C-258.27282266 189.21258941 -258.27614433 181.89070069 -258.28274441 174.56877899 C-258.29046511 165.64931451 -258.2837707 156.72999853 -258.25856937 147.81056404 C-258.2460449 143.25716736 -258.23996334 138.70400221 -258.25111103 134.15059662 C-258.26111528 129.98568867 -258.25277594 125.82124348 -258.22952985 121.6563921 C-258.22434924 120.14636408 -258.22597055 118.63629496 -258.2349245 117.1262846 C-258.24605248 115.08007454 -258.23034286 113.03377037 -258.21315575 110.98760223 C-258.21196426 109.84909065 -258.21077278 108.71057907 -258.2095452 107.53756714 C-257.59518213 103.9885159 -256.54252243 102.79141845 -253.70699787 100.63445282 C-251.17438698 100.39759541 -251.17438698 100.39759541 -248.26005268 100.76819611 C-247.14963832 100.89470834 -246.03922396 101.02122057 -244.89516068 101.15156651 C-243.67782525 101.3087437 -242.46048983 101.46592089 -241.20626545 101.62786102 C-238.52703469 101.92540518 -235.84764605 102.21806568 -233.1672945 102.50499725 C-232.45866534 102.58271695 -231.75003618 102.66043664 -231.0199334 102.74051148 C-215.90131212 104.37818967 -200.70670177 105.24205393 -185.51949787 105.94695282 C-184.68405398 105.98601038 -183.84861009 106.02506793 -182.98784971 106.06530905 C-140.58670724 107.96435088 -105.24478411 105.84416109 -72.63638663 76.46530128 C-63.95621784 68.52107003 -55.95156144 59.99141151 -48.14449787 51.19695282 C-47.63056241 50.6196909 -47.11662694 50.04242898 -46.58711767 49.44767427 C-35.0154328 36.4213761 -23.95176208 23.04239166 -13.5909214 9.02801228 C-12.98485148 8.21050841 -12.37878157 7.39300455 -11.75434589 6.55072784 C-11.23402507 5.83855889 -10.71370424 5.12638994 -10.17761612 4.39264011 C-7.30801425 0.9619078 -4.43608432 -0.1097328 0 0 Z M-4.18686581 21.86543179 C-4.76759539 22.44670613 -5.34832497 23.02798048 -5.94665241 23.6268692 C-6.61411991 24.29014221 -7.28158741 24.95341522 -7.9692812 25.63678741 C-8.70079899 26.37392471 -9.43231678 27.11106201 -10.18600178 27.8705368 C-10.9568259 28.63946259 -11.72765003 29.40838837 -12.52183247 30.20061493 C-15.08066083 32.75572409 -17.63219358 35.31798836 -20.18356037 37.88054657 C-21.95153718 39.64971457 -23.71988279 41.41851408 -25.48858356 43.18695831 C-29.19893168 46.89887324 -32.90601296 50.61401844 -36.61031818 54.33196259 C-40.89910195 58.63647835 -45.19309638 62.93573873 -49.49011958 67.23202842 C-53.61668508 71.35798454 -57.74033608 75.48684005 -61.86249638 79.61719704 C-63.62026586 81.37816063 -65.37865222 83.13850868 -67.13765049 84.89824486 C-69.58989474 87.35264449 -72.03882464 89.81030103 -74.48678303 92.2689743 C-75.22234928 93.00408737 -75.95791553 93.73920044 -76.71577168 94.49658966 C-77.37759953 95.1626825 -78.03942738 95.82877533 -78.72131062 96.5150528 C-79.30128614 97.09670417 -79.88126167 97.67835554 -80.47881222 98.27763271 C-81.81884613 99.45299274 -81.81884613 99.45299274 -81.70699787 100.63445282 C-28.90699787 100.63445282 23.89300213 100.63445282 78.29300213 100.63445282 C73.6683183 95.18548848 73.6683183 95.18548848 68.81357098 90.0213089 C68.19398006 89.397453 67.57438915 88.77359711 66.93602276 88.13083649 C66.27813259 87.47339951 65.62024242 86.81596252 64.94241619 86.13860321 C64.23274197 85.42557037 63.52306774 84.71253754 62.79188824 83.97789764 C60.46675713 81.64333644 58.13793814 79.31249929 55.80862713 76.98210907 C54.18524226 75.35550905 52.56193202 73.72883454 50.93869305 72.10208893 C47.54799154 68.70541824 44.15524814 65.31080214 40.76126385 61.9174118 C36.40246155 57.55871169 32.05061014 53.19314112 27.70044613 48.82582188 C24.35653701 45.47083168 21.00813087 42.12035832 17.65841198 38.77116966 C16.05076723 37.16234148 14.44475149 35.55188383 12.84037304 33.93979836 C10.60693986 31.69663227 8.36733846 29.45981397 6.12600994 27.22454071 C5.1270293 26.21713081 5.1270293 26.21713081 4.10786724 25.1893692 C3.49955563 24.58525208 2.89124401 23.98113495 2.26449871 23.35871124 C1.73580811 22.82947587 1.2071175 22.3002405 0.66240597 21.75496769 C-1.33767435 20.11840171 -2.22027627 20.22958963 -4.18686581 21.86543179 Z " fill="#000000" transform="translate(257.7069978713989,13.365547180175781)"/>
<path d="M0 0 C3.1850357 1.76015131 3.83296972 2.49890916 5 6 C5.22325814 8.05893621 5.40705759 10.12233653 5.5625 12.1875 C5.68818359 13.81751953 5.68818359 13.81751953 5.81640625 15.48046875 C5.87699219 16.31191406 5.93757813 17.14335937 6 18 C6.556875 17.48050781 7.11375 16.96101563 7.6875 16.42578125 C16.29861778 8.55649963 26.64741195 0.66049351 38.765625 -0.1953125 C41.1875 0 41.1875 0 45 1 C47.21510572 4.32265858 47.2154501 5.1350733 47.06494141 8.96777344 C47.01728134 10.48646027 47.01728134 10.48646027 46.96865845 12.03582764 C46.93001678 13.13259827 46.89137512 14.2293689 46.8515625 15.359375 C46.81335446 17.69654746 46.77965057 20.03379706 46.75 22.37109375 C46.69920378 26.04746997 46.62641909 29.71543631 46.47558594 33.38916016 C45.46576046 48.4916567 45.46576046 48.4916567 51.37402344 61.80273438 C54.60738525 65.074452 58.10997389 67.83449055 61.87478638 70.46688843 C67.78286165 74.72892518 73.04906101 79.91619451 78.375 84.875 C83.03833223 89.1986416 87.73696176 93.47818453 92.47265625 97.72265625 C95.84344904 100.76001668 99.18380137 103.83015637 102.52392578 106.90112305 C105.80722669 109.91656177 109.11482831 112.90286277 112.4375 115.875 C121.51779197 124.03558394 121.51779197 124.03558394 123 127 C123.18593849 145.66822476 112.06995487 163.33138783 99.59863281 176.38623047 C89.5892555 186.49038197 77.66441732 195.64151174 64 200 C64.00888245 201.03094788 64.01776489 202.06189575 64.0269165 203.12408447 C64.1079709 212.83543198 64.16795026 222.54671095 64.20724869 232.25831985 C64.22813162 237.25129534 64.25646222 242.24399797 64.30175781 247.23681641 C64.34519028 252.05436641 64.36913178 256.8716538 64.37950897 261.68938446 C64.38690502 263.52823776 64.40134769 265.36707654 64.42292023 267.20581818 C64.45192002 269.7797817 64.4559575 272.35265745 64.45410156 274.92675781 C64.46848267 275.68848801 64.48286377 276.4502182 64.49768066 277.23503113 C64.47035795 280.73256312 64.28006824 282.63426297 62.1239624 285.44989014 C59.61777826 287.278953 58.09888105 287.84883507 55 288 C51.18736653 286.93600927 50.24988993 286.3748349 48 283 C47.81618266 280.43207336 47.74759175 277.97448818 47.77294922 275.4074707 C47.77265717 274.63650055 47.77236511 273.8655304 47.77206421 273.07119751 C47.77345767 270.52261098 47.78901951 267.97431672 47.8046875 265.42578125 C47.80841758 263.65887105 47.81126457 261.89195878 47.81326294 260.12504578 C47.82089983 255.47417492 47.8405488 250.82342894 47.8626709 246.17260742 C47.88312812 241.42693776 47.89226439 236.68124792 47.90234375 231.93554688 C47.92379463 222.62364304 47.95793127 213.31183191 48 204 C46.88939209 203.85377197 45.77878418 203.70754395 44.63452148 203.55688477 C36.46232121 202.30473263 30.09147119 196.25803954 25 190 C18.149711 178.93548258 16.23044743 167.21977105 18.6875 154.41796875 C20.61666319 147.51317218 23.29519465 142.3634781 28 137 C28.92232422 135.76636719 28.92232422 135.76636719 29.86328125 134.5078125 C37.4994283 125.54546076 48.72376272 122.16263046 60 121 C62.59220153 120.86160224 65.18639002 120.75683577 67.78125 120.68359375 C68.48020386 120.66281265 69.17915771 120.64203156 69.89929199 120.62062073 C72.09944259 120.55601465 74.29969696 120.49666091 76.5 120.4375 C78.00521842 120.39422983 79.51042693 120.35061307 81.015625 120.30664062 C84.67697744 120.20042681 88.33844234 120.09891804 92 120 C91.34773438 119.41412109 90.69546875 118.82824219 90.0234375 118.22460938 C85.32889211 114.0043654 80.64459216 109.77513597 76 105.5 C71.54988774 101.41024388 67.06921335 97.35630393 62.5703125 93.3203125 C59.65571393 90.68920072 56.76471675 88.03335866 53.875 85.375 C46.10654443 78.21786165 46.10654443 78.21786165 38.02734375 71.41796875 C37.39957031 70.90878906 36.77179688 70.39960938 36.125 69.875 C35.57070313 69.43929687 35.01640625 69.00359375 34.4453125 68.5546875 C30.25500941 64.04728039 30.66254208 58.31933457 30.5859375 52.54296875 C30.55688828 51.18852409 30.55688828 51.18852409 30.5272522 49.80671692 C30.46765918 46.93373953 30.42115231 44.06072163 30.375 41.1875 C30.33680155 39.23500895 30.29774873 37.28253441 30.2578125 35.33007812 C30.16197431 30.55352016 30.07786848 25.77688333 30 21 C18.11853096 29.03461166 9.24410286 37.21605257 6.36328125 51.6953125 C5.87829142 54.77212973 5.57005802 57.85095364 5.34375 60.95703125 C4.81559977 64.09592412 3.84049129 66.34628455 1.3125 68.3125 C-2.07161918 69.31858949 -4.59666774 68.80442399 -8 68 C-10.11740958 66.41050722 -10.90205628 65.5617503 -11.36076355 62.93086243 C-11.35410172 62.1381041 -11.34743988 61.34534576 -11.34057617 60.52856445 C-11.34034958 59.62785721 -11.34012299 58.72714996 -11.33988953 57.79914856 C-11.32440567 56.83031235 -11.30892181 55.86147614 -11.29296875 54.86328125 C-11.28872391 53.86870407 -11.28447906 52.87412689 -11.28010559 51.84941101 C-11.26330153 48.67016625 -11.22564576 45.49155344 -11.1875 42.3125 C-11.17245541 40.15821227 -11.15876662 38.00391462 -11.14648438 35.84960938 C-11.11339244 30.56619033 -11.06317592 25.28314031 -11 20 C-13.08715035 21.39910576 -15.16797089 22.80634434 -17.24609375 24.21875 C-17.83209351 24.61030273 -18.41809326 25.00185547 -19.02185059 25.40527344 C-27.48933388 31.18707446 -33.21991432 39.37963322 -35.56494141 49.41845703 C-36.84866049 56.42933481 -37.55556469 63.39408939 -38.0625 70.5 C-38.21665355 72.6148338 -38.37405285 74.72943427 -38.53515625 76.84375 C-38.600979 77.76349609 -38.66680176 78.68324219 -38.73461914 79.63085938 C-39 82 -39 82 -40 85 C-39.40832031 84.97679687 -38.81664062 84.95359375 -38.20703125 84.9296875 C-29.84422111 84.73869347 -29.84422111 84.73869347 -26 87 C-22.37231206 90.97989065 -22.56928137 94.01108706 -22.71484375 99.20703125 C-24.56881258 123.86735639 -31.41963384 155.36258917 -49.63653564 173.64216614 C-56.82593585 181.2166816 -57.56477901 191.00650362 -59.296875 200.890625 C-59.65850769 202.84245193 -60.02250241 204.79384256 -60.38873291 206.74481201 C-61.34376465 211.86503027 -62.26852089 216.99024689 -63.18634033 222.11724854 C-64.30187934 228.31727784 -65.45267664 234.51083701 -66.59837723 240.70534897 C-67.4903266 245.53152958 -68.37721289 250.35844283 -69.2477417 255.1885376 C-70.14014142 260.13056566 -71.05862334 265.06707734 -72 270 C-72.12824661 270.68368149 -72.25649323 271.36736298 -72.3886261 272.07176208 C-72.73665379 273.89340402 -73.11010868 275.71013609 -73.48535156 277.52636719 C-73.68340393 278.50224792 -73.8814563 279.47812866 -74.08551025 280.48358154 C-75.18109773 283.49832998 -76.55256209 284.95837521 -79 287 C-81.4375 287.9375 -81.4375 287.9375 -84 288 C-87.48634601 286.37844371 -88.84302194 285.23546708 -91 282 C-91.31963944 274.26266418 -88.99232715 266.21355632 -87.48672295 258.65683365 C-87.04967381 256.46303828 -86.61841046 254.2681707 -86.18849182 252.07296753 C-85.27664013 247.42262402 -84.35733511 242.77376982 -83.4375 238.125 C-82.36745878 232.71288956 -81.30051249 227.30019208 -80.23942757 221.88631821 C-79.81493005 219.72753576 -79.38580006 217.56970869 -78.95640564 215.41189575 C-78.69655656 214.08990548 -78.43690724 212.76787591 -78.17749023 211.44580078 C-77.94956284 210.29459747 -77.72163544 209.14339417 -77.48680115 207.95730591 C-76.89171745 204.84170331 -76.89171745 204.84170331 -77 201 C-77.82177734 201.61875 -77.82177734 201.61875 -78.66015625 202.25 C-98.1614801 216.45584241 -123.5102801 227 -148 227 C-147.99000725 228.07328804 -147.99000725 228.07328804 -147.97981262 229.16825867 C-147.91962615 235.92136886 -147.87398743 242.67440386 -147.84456348 249.42772198 C-147.82892757 252.8994411 -147.80772788 256.37093803 -147.77368164 259.8425293 C-147.73475937 263.83644712 -147.72027371 267.83013263 -147.70703125 271.82421875 C-147.69154739 273.06709152 -147.67606354 274.30996429 -147.66011047 275.59049988 C-147.65988388 276.75132584 -147.65965729 277.91215179 -147.65942383 279.1081543 C-147.64943108 280.63704536 -147.64943108 280.63704536 -147.63923645 282.19682312 C-148.06037872 285.46915 -149.06660278 287.34976817 -151 290 C-152.8671875 290.8828125 -152.8671875 290.8828125 -154.875 291.125 C-155.86113281 291.28355469 -155.86113281 291.28355469 -156.8671875 291.4453125 C-160.35056492 290.71801392 -161.77709293 288.68934131 -164 286 C-164.62818909 282.73020935 -164.62818909 282.73020935 -164.63110352 278.97827148 C-164.63825882 278.29146301 -164.64541412 277.60465454 -164.65278625 276.89703369 C-164.66962941 274.63770047 -164.65030205 272.38036384 -164.62890625 270.12109375 C-164.62973528 268.54598324 -164.63219593 266.97087281 -164.63621521 265.39576721 C-164.63907004 262.09959783 -164.62440218 258.80410917 -164.59692383 255.50805664 C-164.56281259 251.28539107 -164.56887101 247.06394012 -164.5875864 242.84121609 C-164.59815905 239.59062085 -164.58921684 236.34030784 -164.57420158 233.08973885 C-164.56902308 231.5328359 -164.56949758 229.97590345 -164.57574654 228.41900444 C-164.58120347 226.24280354 -164.56081365 224.06833713 -164.53344727 221.89233398 C-164.52724869 220.65499008 -164.52105011 219.41764618 -164.5146637 218.14280701 C-163.90583262 214.4249645 -162.96797463 213.24705026 -160 211 C-157.44482422 210.34985352 -157.44482422 210.34985352 -154.5546875 210.12890625 C-153.48677979 210.03270996 -152.41887207 209.93651367 -151.31860352 209.83740234 C-150.18221436 209.74668457 -149.0458252 209.6559668 -147.875 209.5625 C-115.52736236 206.34309853 -87.44547479 192.5885592 -66.25 167.625 C-59.56050446 159.12654831 -54.07433764 150.01608003 -50 140 C-50.64066406 139.63648438 -51.28132812 139.27296875 -51.94140625 138.8984375 C-66.09878532 130.66985652 -74.15234301 120.92801583 -79 105 C-79 104.01 -79 103.02 -79 102 C-80.27117676 102.01571045 -81.54235352 102.0314209 -82.85205078 102.04760742 C-87.58196644 102.1020325 -92.31185456 102.13639592 -97.04199219 102.16479492 C-99.08663594 102.17985288 -101.13124755 102.20030357 -103.17578125 102.22631836 C-106.11987252 102.26283311 -109.06353557 102.27975651 -112.0078125 102.29296875 C-112.9174173 102.30845261 -113.82702209 102.32393646 -114.76419067 102.33988953 C-119.92489919 102.34124858 -123.55148313 101.93167329 -128 99 C-129.46041228 96.07917545 -129.11928796 93.51698631 -129.11352539 90.25537109 C-129.11367142 89.56257553 -129.11381744 88.86977997 -129.1139679 88.1559906 C-129.11327018 85.86177459 -129.10548442 83.56763936 -129.09765625 81.2734375 C-129.09579157 79.68445887 -129.0943679 78.09547966 -129.09336853 76.50650024 C-129.08954731 72.32090675 -129.07972039 68.13534787 -129.06866455 63.94976807 C-129.05844194 59.68005847 -129.05386909 55.4103433 -129.04882812 51.140625 C-129.03809778 42.76040077 -129.02102608 34.38020469 -129 26 C-130.60663196 27.1176473 -132.21232834 28.2366396 -133.81762695 29.35620117 C-134.71189896 29.97919601 -135.60617096 30.60219086 -136.52754211 31.24406433 C-153.34931471 43.19086055 -163.08477913 60.98217842 -167 81 C-167.56667062 85.20288645 -167.97797908 89.40921064 -168.3125 93.63671875 C-169.08671943 97.4242354 -169.97132514 98.67895945 -173 101 C-175.4375 101.9375 -175.4375 101.9375 -178 102 C-181.48634601 100.37844371 -182.84302194 99.23546708 -185 96 C-185.24050903 92.98176575 -185.24050903 92.98176575 -185.22705078 89.23364258 C-185.22734283 88.55045456 -185.22763489 87.86726654 -185.22793579 87.16337585 C-185.22654332 84.90696477 -185.21098629 82.65088459 -185.1953125 80.39453125 C-185.19158207 78.82940349 -185.18873524 77.26427339 -185.18673706 75.69914246 C-185.17910294 71.58091782 -185.1594564 67.46283439 -185.1373291 63.34466553 C-185.11686589 59.14190582 -185.10773433 54.93912329 -185.09765625 50.73632812 C-185.07621026 42.49082064 -185.04207703 34.24542789 -185 26 C-186.7634615 27.2777629 -188.52627677 28.5564177 -190.28881836 29.83544922 C-191.27055527 30.54740448 -192.25229218 31.25935974 -193.26377869 31.9928894 C-198.50507459 35.83755668 -202.89370934 39.72359082 -206.9375 44.875 C-207.73027344 45.86242187 -208.52304688 46.84984375 -209.33984375 47.8671875 C-216.41677462 58.08911526 -220.11259011 69.57032199 -222.625 81.625 C-222.93949782 83.06234108 -223.25556717 84.49933898 -223.57299805 85.93603516 C-224.74559326 91.28434939 -225.87407916 96.64169332 -227 102 C-227.25086365 103.19359131 -227.50172729 104.38718262 -227.76019287 105.61694336 C-228.1721932 107.57774548 -228.58418804 109.53854876 -228.99592209 111.49940681 C-229.71872214 114.94131845 -230.4426168 118.38299357 -231.16882324 121.82418823 C-231.31409328 122.51264894 -231.45936333 123.20110966 -231.60903549 123.91043282 C-231.90348641 125.30577754 -232.19801424 126.70110604 -232.49261856 128.09641838 C-233.37164412 132.26518226 -234.23976611 136.43604006 -235.09956264 140.60881042 C-235.51252425 142.60680273 -235.92963739 144.60387675 -236.34846497 146.60064697 C-236.86705362 149.07467597 -237.37870881 151.55017168 -237.88237 154.02728271 C-238.1168837 155.13638 -238.3513974 156.24547729 -238.59301758 157.38818359 C-238.79316971 158.35517181 -238.99332184 159.32216003 -239.19953918 160.31845093 C-240.07673112 163.25704976 -241.25531274 165.48420516 -243 168 C-245.65491163 169.25525111 -248.10031556 169.36669161 -251 169 C-254 167.0625 -254 167.0625 -256 164 C-256.31015315 158.555799 -255.74330697 153.78583441 -254.6105957 148.43261719 C-254.46257004 147.72230347 -254.31454437 147.01198975 -254.16203308 146.28015137 C-253.67444644 143.95066507 -253.17535906 141.62381658 -252.67578125 139.296875 C-252.32843727 137.65240895 -251.98170282 136.00781404 -251.63554382 134.36309814 C-250.90824399 130.91579307 -250.1755913 127.46968581 -249.4387207 124.02441406 C-248.50736467 119.66915349 -247.58620703 115.31181941 -246.66853714 110.95365715 C-240.35129738 80.96635768 -240.35129738 80.96635768 -237.22265625 68.1171875 C-237.04857742 67.38401306 -236.8744986 66.65083862 -236.69514465 65.89544678 C-231.258988 44.36591585 -215.16205057 24.21831452 -196.43359375 12.765625 C-181.48142658 3.95864289 -181.48142658 3.95864289 -175.25 4.0625 C-171.50333281 5.14326938 -170.86143639 5.67178047 -169 9 C-168.56762695 12.20800781 -168.56762695 12.20800781 -168.48828125 15.953125 C-168.47033005 16.61334656 -168.45237885 17.27356812 -168.43388367 17.95379639 C-168.37991191 20.05246689 -168.34592957 22.15091177 -168.3125 24.25 C-168.27931505 25.67711464 -168.24482429 27.10419956 -168.20898438 28.53125 C-168.1241953 32.02061652 -168.05732112 35.51006191 -168 39 C-167.47325684 38.33250732 -166.94651367 37.66501465 -166.40380859 36.97729492 C-156.79183701 24.86594636 -146.85591692 16.07771833 -133.3125 8.625 C-132.69487793 8.27880615 -132.07725586 7.9326123 -131.44091797 7.57592773 C-127.29922876 5.36787515 -123.68038957 4.30561189 -119 4 C-116 5 -116 5 -114.33378601 7.09672546 C-112.71168435 10.62758154 -112.59936111 13.64715862 -112.65942383 17.45239258 C-112.65898575 18.1846405 -112.65854767 18.91688843 -112.65809631 19.67132568 C-112.66017783 22.07933695 -112.6834779 24.48664239 -112.70703125 26.89453125 C-112.71262949 28.56889974 -112.71689851 30.24327315 -112.71989441 31.91764832 C-112.73132526 36.3153958 -112.76077715 40.71284403 -112.79400635 45.11047363 C-112.83015381 50.39182095 -112.84387678 55.67326856 -112.86136627 60.95470428 C-112.89041571 68.97001072 -112.94791477 76.98466107 -113 85 C-94.19 85 -75.38 85 -56 85 C-55.47600709 77.1401063 -54.96851739 69.40689967 -54.6875 61.5625 C-53.73929645 43.43988116 -47.89895112 28.10663695 -34.59326172 15.40478516 C-25.94363181 7.77837227 -11.91101197 -1.98516866 0 0 Z M-62 102 C-59.42644257 110.30977697 -59.42644257 110.30977697 -54.625 116.375 C-53.49964844 117.59316406 -53.49964844 117.59316406 -52.3515625 118.8359375 C-48.24162996 122.67801661 -48.24162996 122.67801661 -43 124 C-42.49133331 121.64741656 -41.9929375 119.29338596 -41.5 116.9375 C-41.35691406 116.28072266 -41.21382812 115.62394531 -41.06640625 114.94726562 C-40.93105469 114.29306641 -40.79570312 113.63886719 -40.65625 112.96484375 C-40.46772461 112.07720337 -40.46772461 112.07720337 -40.27539062 111.17163086 C-39.89060408 108.13734335 -40 105.05858814 -40 102 C-47.26 102 -54.52 102 -62 102 Z M40.1875 147.75 C35.36222797 153.6218493 33.33951348 160.15761452 33.65625 167.74609375 C34.85243613 175.58926874 39.40487629 181.59781159 45 187 C47.89243987 188.44621993 49.76526581 188.29508545 53 188 C55.85031047 186.93905929 58.46646474 185.53239355 61.125 184.0625 C61.87273682 183.65572021 62.62047363 183.24894043 63.39086914 182.82983398 C74.35954736 176.72514774 83.39925305 169.11450839 92 160 C91.25878906 159.41089844 90.51757812 158.82179688 89.75390625 158.21484375 C81.93488213 151.92635201 75.72128461 146.48927575 72 137 C59.2133065 136.51029684 49.2613817 138.22052592 40.1875 147.75 Z M90 137 C93.90204522 141.99384615 93.90204522 141.99384615 99 145 C102.06892234 144.32828556 102.06892234 144.32828556 103.1875 142.125 C104.17856873 139.91214647 104.17856873 139.91214647 104 137 C99.38 137 94.76 137 90 137 Z " fill="#000000" transform="translate(343,174)"/>
<path d="M0 0 C2.4375 2.0625 2.4375 2.0625 4 5 C4.36862023 10.62512424 3.44057237 15.7354247 2.3034668 21.20483398 C2.12296783 22.10008789 1.94246887 22.9953418 1.75650024 23.91772461 C1.1609314 26.86195528 0.55541318 29.80403392 -0.05078125 32.74609375 C-0.46998932 34.80192342 -0.88878074 36.8578381 -1.30717468 38.91383362 C-2.184634 43.2176487 -3.06700479 47.52041951 -3.95288086 51.82250977 C-5.08506887 57.32266692 -6.20523053 62.82519051 -7.32172871 68.32855129 C-8.18429408 72.57356937 -9.05315805 76.81727944 -9.92391014 81.06062508 C-10.33923967 83.08831942 -10.75265669 85.11640651 -11.1640873 87.14489555 C-11.74145485 89.98653848 -12.32727604 92.82631374 -12.9152832 95.66577148 C-13.08216141 96.49563065 -13.24903961 97.32548981 -13.42097473 98.18049622 C-16.28370166 111.8558011 -16.28370166 111.8558011 -21 115 C-24.99800164 115.60839155 -26.52201252 115.33251303 -29.875 113 C-32.89302201 108.73926305 -32.38552859 104.78646699 -31.69672203 99.80801201 C-31.27460655 97.41696734 -30.79884466 95.0427112 -30.3034668 92.66577148 C-30.12296783 91.76876526 -29.94246887 90.87175903 -29.75650024 89.9475708 C-29.16190156 87.00376031 -28.55596078 84.06242344 -27.94921875 81.12109375 C-27.52995347 79.06430931 -27.11116307 77.00742801 -26.69282532 74.95045471 C-25.81600146 70.64828529 -24.93356916 66.34731511 -24.04711914 62.04711914 C-22.91356834 56.54603985 -21.79383701 51.04225619 -20.67827129 45.53750515 C-19.81642008 41.29238156 -18.94734375 37.048762 -18.07608986 32.80555916 C-17.66046706 30.77709821 -17.24704944 28.74818409 -16.8359127 26.71880913 C-16.25948825 23.87925732 -15.67337278 21.0418718 -15.0847168 18.20483398 C-14.83439949 16.9570089 -14.83439949 16.9570089 -14.57902527 15.68397522 C-11.00014002 -1.35089439 -11.00014002 -1.35089439 0 0 Z " fill="#000000" transform="translate(94,350)"/>
<path d="M0 0 C3.849263 1.1897722 5.08107269 1.83631841 7.4375 5.0625 C8.05192974 8.05232193 8.04155679 10.95657658 8 14 C8.02384766 14.79857422 8.04769531 15.59714844 8.07226562 16.41992188 C8.06146974 20.76346779 7.83265666 22.55293858 5.08984375 26.08984375 C2.4375 28.0625 2.4375 28.0625 -0.5625 28.6875 C-4.6912525 27.82734323 -5.98074144 26.38190386 -8.5625 23.0625 C-9.28372914 20.04079859 -9.26283855 17.156403 -9.1875 14.0625 C-9.20683594 13.2684375 -9.22617187 12.474375 -9.24609375 11.65625 C-9.21021332 7.3505984 -8.92120415 5.53613465 -6.24609375 2.00390625 C-3.5625 0.0625 -3.5625 0.0625 0 0 Z " fill="#000000" transform="translate(390.5625,259.9375)"/>
<path d="M0 0 C2.09218089 1.81548875 2.89308243 3.30574081 3.31469727 6.04345703 C3.47723334 8.53636369 3.50753554 11.00196823 3.5 13.5 C3.52835937 14.35464844 3.55671875 15.20929688 3.5859375 16.08984375 C3.60542614 22.33595163 3.60542614 22.33595163 0.66015625 25.56640625 C-2.56740408 27.30578164 -4.38267808 27.53875007 -8 27 C-11.1359157 25.22015595 -11.84102736 24.47691793 -13 21 C-13.12226159 18.34152131 -13.18512018 15.72076362 -13.1875 13.0625 C-13.20586914 11.98838867 -13.20586914 11.98838867 -13.22460938 10.89257812 C-13.23511398 7.11442019 -13.19096961 4.16125615 -11 1 C-7.44020669 -1.76872813 -4.1946238 -1.06772242 0 0 Z " fill="#000000" transform="translate(366,261)"/>
<path d="M0 0 C2.77022203 4.15533305 2.36770597 7.55414851 2.375 12.4375 C2.39949219 13.29666016 2.42398438 14.15582031 2.44921875 15.04101562 C2.47839363 21.30875281 2.47839363 21.30875281 0.2265625 24.5625 C-2.09034782 26.05832982 -3.27000898 26.56783201 -6 26.5625 C-6.66 26.58441406 -7.32 26.60632813 -8 26.62890625 C-11.2758755 25.59879696 -12.27416391 23.91947603 -14 21 C-14.51379689 18.12527024 -14.46996969 15.34907078 -14.375 12.4375 C-14.37371094 11.68275391 -14.37242187 10.92800781 -14.37109375 10.15039062 C-14.31073947 6.34471768 -14.25733815 3.16027341 -12 0 C-7.65546469 -2.73085077 -4.61796746 -1.82976069 0 0 Z " fill="#000000" transform="translate(227,295)"/>
<path d="M0 0 C2.52737004 1.91731521 2.9716847 2.91505409 4 6 C4.14675735 8.45536342 4.22100698 10.91542552 4.25 13.375 C4.27578125 14.68210937 4.3015625 15.98921875 4.328125 17.3359375 C3.98650077 21.15074144 3.31641599 22.99765501 1 26 C-2.09173752 27.54586876 -4.59429552 27.29359521 -8 27 C-10.19921875 25.609375 -10.19921875 25.609375 -12 23 C-12.56854911 19.63557637 -12.51249278 16.34120447 -12.4375 12.9375 C-12.44458984 12.02677734 -12.45167969 11.11605469 -12.45898438 10.17773438 C-12.39508295 3.50740833 -12.39508295 3.50740833 -10.66040039 1.27954102 C-7.05787731 -1.49664241 -4.20590497 -1.05147624 0 0 Z " fill="#000000" transform="translate(197,294)"/>
</svg>
